<svg width="13" height="13" viewBox="0 0 13 13" fill="none" xmlns="http://www.w3.org/2000/svg">
<path fill-rule="evenodd" clip-rule="evenodd" d="M0.0159961 0.0571289C0.0075918 0.0885625 0.000533203 2.746 0.000355469 5.96256L0 11.8109L0.0777715 12.0051C0.230547 12.3866 0.534066 12.7646 0.824281 12.9346L0.940951 13.003L3.54908 12.9931L6.15723 12.9832L7.22363 12.9037C7.81016 12.86 8.57568 12.8068 8.9248 12.7854C9.27393 12.764 9.62241 12.7406 9.69922 12.7334C9.87891 12.7164 10.5164 12.6791 11.4131 12.6329C11.8041 12.6128 12.1869 12.5832 12.2637 12.5672C12.4517 12.5279 12.7335 12.3896 12.8724 12.2684C12.9859 12.1693 12.986 12.1689 13.0037 11.9562C13.0254 11.6947 13.0315 0.0962813 13.01 0.040168C12.996 0.00368164 12.3999 0 6.51295 0H0.0313066L0.0159961 0.0571289ZM0.0124922 5.9541C0.0124922 9.19394 0.0154375 10.5156 0.019043 8.89104C0.0226484 7.26649 0.0226484 4.61571 0.019043 3.00041C0.0154375 1.38508 0.0124922 2.71426 0.0124922 5.9541ZM1.68761 0.264062C1.57729 0.312127 1.44724 0.450811 1.38788 0.583705C1.33707 0.69748 1.33677 0.733687 1.34233 6.00374C1.34768 11.0634 1.35007 11.3141 1.39395 11.4132C1.46082 11.5644 1.58351 11.6925 1.73268 11.7669C1.89125 11.8459 2.0461 11.8499 2.80566 11.7948C3.08496 11.7745 3.58198 11.7404 3.91016 11.7189C5.72581 11.6002 6.93451 11.5168 8.34082 11.4131C9.23762 11.347 10.9977 11.2256 11.2988 11.2091C11.6519 11.1897 11.8208 11.1246 11.9246 10.9678C12.0299 10.8087 12.0376 10.7161 12.0109 9.93332C11.9972 9.53225 11.974 8.7585 11.9593 8.21387C11.9328 7.23148 11.9061 6.32402 11.858 4.76074C11.8442 4.31387 11.821 3.54834 11.8064 3.05957C11.7643 1.64864 11.7303 0.908857 11.7029 0.805822C11.6579 0.63634 11.4712 0.471047 11.2705 0.422906C11.2102 0.408459 10.2153 0.384262 6.42383 0.305018C5.7186 0.290291 4.61602 0.267033 3.97363 0.253322C2.37293 0.219197 1.78425 0.221965 1.68761 0.264062ZM2.31618 1.58615C1.99685 1.68586 1.78506 2.04433 1.85278 2.37049C1.88302 2.51613 1.88965 2.52655 2.36031 3.16525C2.95433 3.97135 3.36769 4.62993 3.80798 5.47178C4.295 6.40288 4.60294 7.10125 5.27259 8.79331C5.43187 9.1958 5.58904 9.56762 5.62184 9.61959C5.80092 9.90326 6.15771 10.049 6.47446 9.96785C6.55774 9.94652 6.67106 9.90054 6.72628 9.86565C6.82909 9.80078 6.85042 9.77247 7.54094 8.78516C8.54907 7.34371 9.7225 5.8616 10.775 4.70026C11.4843 3.91772 11.4799 3.92427 11.496 3.61816C11.5088 3.37482 11.4602 3.23761 11.2995 3.06323C11.157 2.90862 10.9785 2.83316 10.7529 2.83217C10.4879 2.831 10.366 2.90776 10.0712 3.2613C9.94256 3.41567 9.5228 3.91904 9.13844 4.37988C8.24774 5.44784 7.55041 6.3198 6.94548 7.12207C6.37074 7.88427 6.40537 7.84375 6.3831 7.7804C6.37366 7.75346 6.21852 7.37725 6.03835 6.94434C5.68742 6.10106 5.0995 4.8883 4.72126 4.22754C4.19448 3.30723 3.16309 1.867 2.89313 1.67479C2.79921 1.60791 2.61183 1.54817 2.50329 1.55053C2.46012 1.55147 2.37593 1.56749 2.31618 1.58615Z" />
</svg>
