<svg width="35" height="45" viewBox="0 0 35 45" fill="none" xmlns="http://www.w3.org/2000/svg">
<path fill-rule="evenodd" clip-rule="evenodd" d="M15.7727 0.10288C15.4071 0.15788 14.8325 0.32138 14.496 0.46613C13.8616 0.739005 12.75 1.79725 12.75 2.12825C12.75 2.2925 12.8016 2.29313 13.1835 2.13363C15.2198 1.28275 18.2208 3.57938 17.3243 5.30251C16.9072 6.10413 16.3432 6.40988 14.8392 6.64976C13.4317 6.87413 11.5996 7.46601 10.8611 7.93476C9.57335 8.75201 8.88135 9.89763 8.67372 11.5555C8.59097 12.2156 8.58497 12.2234 7.92947 12.5133C5.67585 13.5099 3.64085 15.8148 3.06597 18.0215C2.81897 18.9701 2.82185 20.6474 3.07235 21.622C4.0386 25.3819 7.99535 28.1971 13.875 29.308C16.132 29.7344 18.573 29.8828 20.6993 29.7226C27.1862 29.2341 31.7242 26.9776 33.5631 23.3264C34.2596 21.9433 34.4172 21.211 34.3421 19.7076C34.2378 17.6223 33.6181 16.2043 32.1347 14.6576C31.1931 13.6758 30.5758 13.2221 29.3236 12.5918C28.8362 12.3465 28.403 12.1283 28.3608 12.1069C28.3188 12.0856 28.2161 12.4218 28.1327 12.854C27.3128 17.1046 24.5261 20.8388 20.9771 22.4424C19.8953 22.9311 18.373 23.3965 17.25 23.5818C15.9303 23.7995 13.9313 23.5055 12.8645 22.9369C12.4553 22.7188 12.145 22.5159 12.1748 22.4859C12.2048 22.456 12.5573 22.55 12.9583 22.6948C15.1742 23.4945 18.4513 23.1685 21.125 21.8821C23.5297 20.7251 25.2446 19.0338 26.4397 16.64C28.3507 12.8128 28.2573 8.94426 26.1715 5.52663C25.0408 3.67413 23.2608 2.01138 21.4375 1.10438C20.6361 0.705754 19.2791 0.32688 18 0.144755C16.697 -0.0408701 16.7243 -0.04037 15.7727 0.10288ZM23.0212 9.45251C22.3676 11.75 21.5818 12.9674 19.996 14.14C19.2525 14.6896 17.6188 15.4948 16.7285 15.7504C15.6042 16.073 13.9846 16.1344 12.6875 15.9035C11.278 15.6526 11.2053 15.657 11.7757 15.9583C12.9206 16.5628 14.826 16.7338 16.408 16.374C19.9271 15.5736 22.6361 13.2165 23.1343 10.5218C23.2058 10.1345 23.2457 9.60888 23.2228 9.35376L23.1812 8.89001L23.0212 9.45251ZM1.39285 21.0118C0.682597 22.0549 0.545722 23.446 1.04722 24.5231C2.1376 26.8648 5.99947 28.956 10.738 29.771C11.7282 29.9413 12.5572 30.0619 12.5802 30.0389C12.6032 30.016 12.2992 29.8974 11.9047 29.7753C10.6583 29.3896 8.13072 28.3351 7.23147 27.8255C5.62797 26.9169 4.05972 25.5185 3.16822 24.2025C2.71247 23.5296 2.20897 22.285 1.99247 21.2963C1.90597 20.901 1.80197 20.5779 1.76135 20.5784C1.72072 20.5789 1.55485 20.7739 1.39285 21.0118ZM2.03422 28.0463C2.17947 30.0595 3.84935 34.4276 6.01572 38.4614C7.03322 40.356 7.5901 41.1564 8.41622 41.9113C9.26022 42.6828 9.9081 42.8924 11.1303 42.79C11.9641 42.72 12.0171 42.7323 12.4006 43.0825C13.1677 43.7831 14.4281 44.2686 15.8125 44.3968C17.4542 44.5486 19.1066 44.0436 20.1815 43.0613C20.8033 42.4929 20.8891 42.4514 21.1506 42.592C21.3083 42.6769 21.775 42.7481 22.1875 42.7503C23.435 42.7566 24.5571 41.9943 25.6115 40.424C26.2512 39.471 27.9222 36.162 28.753 34.2025C29.8428 31.632 30.8226 28.5346 30.7273 27.9611C30.6905 27.74 30.6347 27.7524 30 28.1229C28.6461 28.9129 26.2821 29.8235 24.2905 30.3223C21.4813 31.0255 16.692 31.3664 13.4247 31.0954C9.42922 30.7639 5.14697 29.3839 2.9621 27.7236C2.49435 27.3683 2.0786 27.0775 2.03797 27.0775C1.99747 27.0775 1.99572 27.5135 2.03422 28.0463Z"/>
</svg>
