<svg width="20" height="52" viewBox="0 0 20 52" fill="none" xmlns="http://www.w3.org/2000/svg">
<path fill-rule="evenodd" clip-rule="evenodd" d="M5.60181 0.365375L5.23644 0.73075V2.71537C5.23644 4.09225 5.28231 4.74588 5.38644 4.85C5.60144 5.065 14.2464 5.065 14.4614 4.85C14.6511 4.66038 14.6687 1.3265 14.4828 0.7935C14.2167 0.0298749 14.0402 0 9.80132 0H5.96719L5.60181 0.365375ZM5.76769 5.6985C5.68181 5.73825 5.61144 5.8505 5.61144 5.94788C5.61144 6.0965 6.26156 6.12962 9.64269 6.15362L13.6739 6.18225L9.68581 6.24737C5.79144 6.311 5.41244 6.35812 6.28369 6.67025C6.47744 6.73975 6.50481 6.83575 6.44031 7.221C6.39731 7.4775 6.32656 8.08125 6.28306 8.5625C6.23344 9.11175 6.12431 9.53063 5.99006 9.6875C5.79044 9.92063 4.23644 12.6656 4.23644 12.785C4.23644 12.8147 3.94794 13.3394 3.59519 13.9509C2.91281 15.1339 1.22331 18.4364 0.980188 19.0625C0.362688 20.6528 0.216688 21.1949 0.104938 22.3125C-0.144187 24.8041 0.0476878 27.29 0.708063 30.125C1.18706 32.1811 1.15819 33.8412 0.604814 36.0625C0.272564 37.3956 0.189438 38.0091 0.141563 39.4785C0.0383131 42.645 0.691688 47.8525 1.44081 49.8341C1.60744 50.2749 1.73756 50.3989 2.28094 50.6353C2.69206 50.814 3.27644 50.9361 3.90144 50.974L4.87894 51.0331L4.79856 50.6045C4.69719 50.0639 5.02094 49.213 5.43019 48.9449C6.27144 48.3937 6.97106 48.9144 7.10306 50.1899C7.15481 50.6901 7.25881 51.0616 7.36556 51.1276C7.93781 51.4812 10.5681 51.5826 11.9409 51.304C12.4049 51.2099 12.5774 50.8954 12.6899 49.9386C12.7881 49.1041 13.0826 48.75 13.6788 48.75C14.3818 48.75 14.7423 49.233 14.9146 50.4062C14.9626 50.7329 15.0686 51.0055 15.1503 51.0121C16.2343 51.1005 17.4036 50.8114 17.9157 50.3284C18.3826 49.8881 18.4871 49.5854 18.9142 47.4375C19.3874 45.0574 19.5404 43.3779 19.5401 40.5625C19.5398 38.0104 19.5269 37.8769 19.0756 35.7504C18.8203 34.5475 18.6114 33.2648 18.6114 32.8999C18.6114 32.5349 18.8328 31.1285 19.1034 29.7744C19.3739 28.4204 19.6288 26.7781 19.6698 26.125C19.7107 25.4719 19.7678 24.5574 19.7967 24.0929C19.8584 23.0969 19.6143 21.4537 19.2296 20.2771C18.7239 18.7309 17.3488 16.0201 14.3652 10.6875C13.5574 9.24388 13.5202 9.13938 13.3739 7.906C13.2904 7.20113 13.2521 6.57588 13.2888 6.5165C13.3254 6.45713 13.4968 6.4355 13.6697 6.46863C13.9144 6.51538 14.0089 6.46337 14.0971 6.23312C14.1593 6.0705 14.1741 5.89937 14.1297 5.85275C14.0293 5.7475 5.98269 5.599 5.76769 5.6985ZM7.30606 7.78125C7.26206 8.211 7.19531 8.7735 7.15781 9.03125L7.08944 9.5H9.83506H12.5807L12.5289 8.90625C12.5004 8.57975 12.4471 8.01725 12.4103 7.65625L12.3434 7H9.86469H7.38594L7.30606 7.78125ZM10.7652 13.8189C10.3352 14.1201 10.2231 14.4353 10.1071 15.6684C9.75256 19.4349 11.3532 25.8733 13.0709 27.5911C13.5126 28.0326 13.6484 28.1035 13.8873 28.0168C14.2321 27.8914 14.6831 27.2599 14.8706 26.6398C15.0939 25.9013 15.1607 23.1105 14.9899 21.6459C14.4077 16.6513 12.2991 12.7445 10.7652 13.8189Z" />
</svg>
