<svg width="58" height="29" viewBox="0 0 58 29" fill="none" xmlns="http://www.w3.org/2000/svg">
<path fill-rule="evenodd" clip-rule="evenodd" d="M25.4735 0.046571C21.3459 0.196821 17.829 0.602696 14.2634 1.3402C10.6709 2.08332 9.37303 2.52794 7.16915 3.77107C6.38678 4.21244 6.18603 4.26832 5.10665 4.34582C3.6304 4.45157 2.82228 4.78545 1.8184 5.70407C1.32215 6.15807 0.964151 6.6372 0.657776 7.25707C0.237401 8.1077 0.208026 8.25207 0.0824014 10.0893C-0.0958486 12.6939 0.0154014 14.3582 0.413151 15.0387C0.578276 15.3212 0.858651 15.6474 1.0364 15.7639C1.4549 16.0381 3.0594 16.1599 8.53603 16.3334C10.8735 16.4076 14.136 16.5313 15.786 16.6087C19.7707 16.7953 31.0199 16.7997 35.4735 16.6162C37.4329 16.5356 40.2735 16.4387 41.786 16.4009C44.7838 16.3263 47.6082 16.2249 48.786 16.1498C49.1985 16.1236 50.9624 16.0619 52.7059 16.0129C55.831 15.9249 55.8808 15.9194 56.2415 15.6158C56.9777 14.9964 57.0295 14.7673 57.077 11.9246C57.1119 9.84257 57.0794 9.13882 56.914 8.39557C56.6688 7.29332 56.0058 6.21807 55.1239 5.49245C54.132 4.6762 53.5692 4.49557 51.34 4.27782C50.6552 4.21095 50.3753 4.1052 49.6527 3.64032C47.8998 2.5127 44.7692 1.61082 39.9735 0.851821C38.5034 0.619071 37.9235 0.546696 36.411 0.406945C36.0673 0.37507 35.4485 0.317445 35.036 0.278695C32.3652 0.0281954 28.5329 -0.064929 25.4735 0.046571ZM23.3485 2.41332C20.3234 2.66857 17.1172 3.19169 14.8485 3.80019C14.1954 3.97532 13.2673 4.22494 12.786 4.35482C10.9827 4.84157 7.95978 6.10707 6.49915 6.9867C5.20803 7.76432 4.1639 8.7242 3.6129 9.63995C3.27365 10.2037 3.17753 10.5139 3.12803 11.2052C3.0049 12.9267 3.70865 14.9627 4.4269 14.9627C4.67603 14.9627 4.73215 14.9153 4.67115 14.7566C4.62765 14.6432 4.50253 14.0386 4.39315 13.4128C4.13828 11.9559 4.22965 9.75182 4.56903 9.1707C4.88653 8.62707 5.8654 8.07857 8.09853 7.19332C12.858 5.30632 16.82 4.27469 21.536 3.69432C23.6209 3.43782 31.471 3.4777 33.911 3.7572C38.2224 4.25107 42.5474 4.8387 44.2424 5.16107C46.2183 5.53682 45.6588 5.27445 43.2057 4.67482C39.3103 3.72257 36.4489 3.17495 32.911 2.70432C31.3707 2.49945 30.1068 2.42995 27.411 2.40207C25.486 2.38207 23.6579 2.38719 23.3485 2.41332ZM45.911 5.4627C46.0485 5.52182 46.2735 5.57007 46.411 5.57007H46.661L46.411 5.4627C46.2735 5.40357 46.0485 5.35532 45.911 5.35532H45.661L45.911 5.4627ZM51.286 11.2497C49.4468 12.2943 47.4554 12.7752 44.1992 12.9611C40.144 13.1926 36.2917 13.3466 29.9735 13.5297C26.4329 13.6323 22.1652 13.7814 20.4895 13.8611C16.038 14.0727 13.7598 13.8132 12.145 12.9107C11.8235 12.7311 11.5407 12.6039 11.5163 12.6282C11.4118 12.7328 12.5799 13.7634 13.036 13.9691C13.311 14.0929 14.0142 14.2969 14.5985 14.4223C15.5575 14.6279 16.3675 14.6502 22.911 14.6502C31.2727 14.6502 40.5968 14.5033 42.411 14.3431C48.2865 13.8239 50.9762 12.9677 51.8479 11.3389C52.0985 10.8704 51.9854 10.8524 51.286 11.2497ZM1.47353 16.6949C1.47353 16.8341 1.53328 16.9848 1.60615 17.0299C1.67915 17.0751 5.88378 17.1246 10.9499 17.1399C21.5202 17.1721 19.898 17.0261 5.53603 16.6527C4.02353 16.6133 2.49078 16.5498 2.12978 16.5116C1.53128 16.4479 1.47353 16.4642 1.47353 16.6949ZM49.161 16.5974C48.336 16.6519 45.4392 16.7577 42.7235 16.8323C40.0079 16.9069 36.5204 17.0501 34.9735 17.1503C32.1749 17.3318 22.9043 17.4559 8.66103 17.5027C4.17603 17.5173 1.78603 17.5687 1.78603 17.6502C1.78603 17.7189 2.17978 17.8129 2.66103 17.8591C3.7874 17.9671 32.6618 17.9661 45.0985 17.8576C55.7114 17.7649 55.2873 17.8017 55.585 16.9478C55.6612 16.7292 55.7235 16.5307 55.7235 16.5066C55.7235 16.4268 50.6888 16.4966 49.161 16.5974ZM54.271 18.2033C53.2302 18.3738 52.965 18.7041 52.4161 20.5136C52.0334 21.7758 51.6005 22.3377 51.011 22.3377C50.7341 22.3377 50.4594 22.1392 49.7826 21.4504C49.3033 20.9623 48.4193 20.1186 47.8184 19.5754C46.159 18.0754 46.1108 18.0886 43.3335 20.7984C42.2044 21.9002 41.671 22.3377 41.4566 22.3377C41.2396 22.3377 40.7445 21.9208 39.659 20.8244C37.86 19.0071 37.3207 18.5862 36.7985 18.5921C36.2204 18.5987 36.0009 18.7606 34.0418 20.6254C32.8845 21.7269 32.1479 22.3377 31.9765 22.3377C31.8155 22.3377 31.1893 21.8674 30.3949 21.1502C29.1968 20.0682 29.0355 19.9627 28.581 19.9627C27.9072 19.9627 27.7112 20.0843 26.4359 21.2941C25.6342 22.0546 25.2472 22.3377 25.0095 22.3377C24.761 22.3377 24.3232 21.9838 23.1722 20.8532C21.4467 19.1581 20.5754 18.4627 20.177 18.4627C19.8562 18.4627 18.4007 19.7213 16.911 21.2871C16.3042 21.9251 15.8128 22.3378 15.661 22.3371C15.2727 22.3354 14.8197 21.9819 13.3097 20.5019C11.6454 18.8708 11.121 18.4627 10.69 18.4627C10.2859 18.4627 9.91265 18.7661 8.00665 20.6436C7.10278 21.5341 6.31803 22.2006 6.0879 22.2733C5.72415 22.3883 5.70265 22.4277 5.76228 22.8718C5.90978 23.9714 6.47853 24.3242 8.3389 24.4701C10.3615 24.6287 16.589 24.8269 23.786 24.9619C27.361 25.0289 31.8048 25.1409 33.661 25.2108C39.4907 25.4303 44.7322 25.6177 46.2064 25.6593C46.9877 25.6813 47.6579 25.7304 47.696 25.7686C47.7549 25.8274 39.6683 25.8524 23.8485 25.8424C18.9272 25.8392 9.98303 25.6149 8.34853 25.4537C6.73178 25.2941 6.2344 25.1528 5.67928 24.6952C5.01478 24.1474 4.7674 23.4772 4.46303 21.4002C4.08278 18.8044 4.0024 18.5601 3.46853 18.3759C3.02353 18.2224 1.97353 18.1574 1.97353 18.2834C1.97353 18.3223 2.02428 18.4488 2.08615 18.5647C2.2039 18.7847 2.6049 20.6803 3.16178 23.6502C3.52503 25.5867 3.7704 26.1372 4.60753 26.8934C5.54515 27.7404 5.9974 27.8633 8.59715 27.9771C16.3322 28.3157 34.5399 28.4492 40.7235 28.2127C42.4079 28.1483 45.1923 28.0622 46.911 28.0213C48.6298 27.9804 50.316 27.8922 50.6581 27.8251C51.4519 27.6696 52.1807 27.2413 52.7793 26.5787C53.3975 25.8944 53.661 25.2702 53.91 23.9002C54.0225 23.2814 54.3078 21.7693 54.544 20.5398C55.0137 18.0954 55.0158 18.0807 54.8798 18.1033C54.8282 18.1119 54.5543 18.1569 54.271 18.2033Z"/>
</svg>
