<svg width="18" height="18" viewBox="0 0 18 18" fill="none" xmlns="http://www.w3.org/2000/svg">
<path fill-rule="evenodd" clip-rule="evenodd" d="M3.13162 0.0261228C2.1592 0.199569 1.37018 0.671191 0.841567 1.39489C0.592566 1.73576 0.357349 2.21439 0.225017 2.64939C0.106468 3.03897 -0.000668144 3.80704 3.13779e-06 4.26223C0.00233025 5.79353 0.736757 7.70257 1.94636 9.32149C2.33481 9.84133 3.23012 10.838 3.91577 11.5139C6.91206 14.4675 7.50319 15.2001 8.4441 17.1265C8.83027 17.9171 8.92886 18.029 9.20856 17.9946C9.31413 17.9816 9.43988 17.9317 9.48795 17.8837C9.53601 17.8357 9.75955 17.4055 9.98474 16.9277C10.4741 15.8891 10.7651 15.3653 11.5698 14.074C11.9856 13.4068 12.6417 12.5634 13.5789 11.4915C15.8907 8.84735 16.7284 7.61625 17.177 6.2037C17.6988 4.5609 17.4735 3.08873 16.5135 1.86789C15.9859 1.19676 15.1943 0.766798 14.2517 0.639206C12.8879 0.454605 11.2271 1.23324 10.056 2.6063C9.68915 3.03641 9.2641 3.70344 9.08719 4.12649C9.02763 4.26904 8.96435 4.38562 8.94658 4.38562C8.92886 4.38562 8.90098 4.32684 8.88464 4.25502C8.79071 3.84238 8.28725 2.91222 7.80388 2.25842C7.54378 1.90664 6.90915 1.27411 6.5527 1.01147C5.91968 0.54503 5.12542 0.18565 4.46734 0.0679296C4.08301 -0.000826977 3.40206 -0.0221499 3.13162 0.0261228Z" />
</svg>
