<svg width="19" height="21" viewBox="0 0 19 21" fill="none" xmlns="http://www.w3.org/2000/svg">
<path fill-rule="evenodd" clip-rule="evenodd" d="M10.9559 0.0231204C9.86583 0.114087 8.77999 0.485572 7.90885 1.0655C5.44395 2.70647 4.39205 5.62634 5.24776 8.45217C5.35245 8.79797 5.56348 9.24792 6.08961 10.2473C6.1984 10.454 6.21598 10.5473 6.21363 10.9065C6.21046 11.393 6.09664 11.7144 5.87174 11.8715C5.79449 11.9255 5.54454 12.0655 5.31627 12.1825C4.76583 12.4649 4.48575 12.74 3.58272 13.8857C2.64371 15.077 1.23531 16.8384 0.725594 17.4589C0.513289 17.7174 0.285262 18.031 0.218807 18.156C-0.378654 19.2797 0.309334 20.6183 1.53199 20.7107C2.37706 20.7746 2.81012 20.5153 3.46847 19.5509C3.58824 19.3754 3.78292 19.1007 3.90108 18.9405C4.01925 18.7803 4.36949 18.3059 4.67945 17.8865C5.54976 16.7087 6.2609 15.7374 6.34166 15.6162C6.38194 15.5558 6.57794 15.2813 6.77721 15.0062C7.15518 14.4844 7.22755 14.3109 7.39244 13.5301C7.46095 13.2057 7.50147 13.1192 7.65841 12.9623C7.93721 12.6835 8.24483 12.599 8.85216 12.6344C9.12301 12.6501 9.47496 12.6988 9.63424 12.7425C10.1356 12.8799 10.691 12.9618 11.3221 12.9912C12.707 13.0559 14.2369 12.5808 15.3853 11.7293C17.9271 9.84465 18.7631 6.50315 17.3948 3.69729C16.9901 2.86731 16.5038 2.22087 15.8472 1.64016C14.5067 0.454712 12.7486 -0.126538 10.9559 0.0231204ZM10.6141 2.61062C9.28287 2.94548 8.18936 3.94773 7.7627 5.22405C7.50504 5.9948 7.46368 6.46087 7.58917 7.18035C7.86798 8.77937 9.07857 10.0595 10.6551 10.4227C11.0637 10.5168 11.2172 10.5289 11.6805 10.5037C12.3354 10.468 12.6182 10.3954 13.1999 10.1134C14.5391 9.46404 15.3492 8.26355 15.4551 6.77156C15.5891 4.88372 14.3415 3.12439 12.5184 2.63049C12.3513 2.58518 11.9633 2.5428 11.6151 2.53171C11.1189 2.51594 10.9317 2.53069 10.6141 2.61062Z" fill="#2B2A2E"/>
</svg>
