<svg width="48" height="27" viewBox="0 0 48 27" fill="none" xmlns="http://www.w3.org/2000/svg">
<path fill-rule="evenodd" clip-rule="evenodd" d="M23.6858 0.0300422C21.7767 0.356571 20.9049 0.925173 20.9049 1.84366C20.9049 2.12222 20.9814 2.27125 21.2774 2.56921C21.6196 2.91359 22.5156 3.35247 22.8766 3.35247C23.1312 3.35247 23.2029 3.83739 23.1216 5.00973C23.1128 5.13694 22.9736 5.18356 22.4631 5.23066C20.818 5.3822 18.3657 5.87195 17.2609 6.26961C15.1976 7.01224 14.0465 7.54059 12.5621 8.42617C7.63392 11.3665 4.06523 16.2953 2.97856 21.6623C2.86991 22.1993 2.78092 22.7229 2.78092 22.8258C2.78092 23.0089 2.94289 23.0141 10.3626 23.0667C14.5324 23.0962 24.13 23.0962 31.6905 23.0666L45.4368 23.0128L45.3901 22.6658C45.2666 21.7486 44.5898 19.0668 44.3904 18.7045C44.3449 18.622 44.1952 18.2721 44.0575 17.9271C42.6845 14.4854 39.83 11.0937 36.4135 8.84468C33.322 6.80964 29.6257 5.53789 25.6995 5.15837L25.3639 5.12594L25.3364 4.29982L25.3089 3.4737L25.7679 3.35952C26.7102 3.12497 27.5531 2.51554 27.6688 1.98526C27.7623 1.557 27.3965 0.890426 26.9109 0.603953C26.2589 0.219415 24.4551 -0.101612 23.6858 0.0300422ZM17.7709 6.91823C15.7747 7.83035 12.7746 10.8678 10.8853 13.8892C10.2219 14.9501 9.23266 16.9709 8.74139 18.2685C8.31678 19.3901 7.7674 21.2056 7.7674 21.4872C7.7674 21.563 8.36415 21.5949 9.78117 21.5949C10.8887 21.5949 11.7949 21.5818 11.7949 21.5658C11.7949 21.4614 12.5849 17.5819 12.6168 17.5301C12.6385 17.4946 12.8097 16.9287 12.9971 16.2726C13.471 14.6129 14.3935 12.3086 15.136 10.9293C15.8723 9.56164 16.8093 8.25842 17.825 7.18916C18.0646 6.93695 18.2406 6.73166 18.2162 6.73281C18.1918 6.73397 17.9914 6.81736 17.7709 6.91823ZM0.62331 24.8749C0.303216 25.0874 0 25.5853 0 25.8984C0 26.1736 0.381849 26.7276 0.674134 26.8766C0.861606 26.972 5.72927 26.9975 24.0312 26.9986L47.1514 27L47.4772 26.7796C47.9389 26.4676 48.1194 25.9195 47.919 25.4391C47.8377 25.2441 47.6508 25.0052 47.5037 24.9082C47.2467 24.7387 46.325 24.7308 24.0736 24.7078C1.13318 24.6841 0.90821 24.6857 0.62331 24.8749Z" />
</svg>
