<svg width="33" height="38" viewBox="0 0 33 38" fill="none" xmlns="http://www.w3.org/2000/svg">
<path fill-rule="evenodd" clip-rule="evenodd" d="M8.68168 0.687289C8.66288 0.707328 8.23222 0.746368 7.72465 0.773977C5.62356 0.888348 4.52434 1.06766 3.59376 1.44796C2.93451 1.71737 2.68021 1.86997 2.25085 2.25375C1.29757 3.10578 0.804499 4.4386 0.791989 6.19729C0.784538 7.24207 0.893844 10.6313 0.937526 10.711C0.955778 10.7443 0.998707 15.37 1.03296 20.9903C1.06714 26.6106 1.11034 31.4595 1.12886 31.7657C1.2083 33.0767 1.3809 34.7274 1.47797 35.1055C1.78593 36.3042 2.44697 37.2336 3.33263 37.7131L3.79399 37.9629L10.0489 37.9626C15.4222 37.9622 16.5157 37.9436 17.8077 37.8306C18.6348 37.7582 20.3728 37.6672 21.67 37.6282C24.1747 37.5529 26.0538 37.4504 27.1729 37.3278C30.3803 36.9767 31.5663 36.0637 31.9878 33.6211C32.0265 33.3966 32.0884 31.1756 32.1252 28.6856C32.1622 26.1955 32.2238 23.4402 32.2621 22.5625C32.4768 17.6499 32.5253 11.1342 32.3655 8.64651C32.2685 7.13623 32.192 6.60935 31.9455 5.75524C31.0207 2.55003 28.7564 1.52685 21.4307 1.00376C20.5284 0.939336 19.344 0.851536 18.7989 0.808637C17.7897 0.729223 8.74403 0.620789 8.68168 0.687289ZM4.2725 3.14616C3.29011 3.40644 2.62621 4.22663 2.3242 5.55285C2.11023 6.49224 2.04146 7.91694 2.00284 12.209C1.97112 15.731 2.06005 22.2657 2.15364 23.2837C2.16943 23.4558 2.21414 24.1238 2.25296 24.7681C2.60344 30.5876 2.71241 31.7899 3.01838 33.2129C3.48747 35.3947 4.45468 35.9373 8.06645 36.0454C9.3045 36.0824 12.6814 35.9236 13.0567 35.8107C13.1131 35.7937 13.6514 35.7263 14.253 35.6607C14.8545 35.5952 15.639 35.4952 15.9961 35.4383C18.0128 35.1175 19.9466 34.9258 24.2676 34.6186C28.6365 34.3079 29.3274 34.069 29.526 32.8003C29.5607 32.5782 29.6063 30.6264 29.6273 28.4629C29.6649 24.5797 29.7235 22.0124 29.8788 17.4414C29.9769 14.5525 29.9279 11.032 29.7746 9.94927C29.6263 8.90264 29.4962 8.31757 29.2811 7.72969C28.4954 5.58306 27.0671 4.81563 22.9123 4.3079C21.7868 4.1703 21.2689 4.12458 18.6621 3.93265C18.117 3.8925 17.471 3.84485 17.2266 3.82689C16.9822 3.80886 15.9363 3.75854 14.9024 3.71497C11.4146 3.56809 8.72659 3.41112 7.75883 3.29764C5.45382 3.02748 4.82389 3.00009 4.2725 3.14616ZM7.1449 6.87253C6.79913 7.00999 6.46698 7.35874 6.27126 7.7898C6.12224 8.11807 6.11848 8.18569 6.12914 10.3455C6.13612 11.7674 6.16852 12.6735 6.21931 12.8689C6.34988 13.3712 6.62824 13.7468 7.03675 13.9717C7.3646 14.1523 7.48286 14.1757 8.06159 14.1754C8.42144 14.1751 8.83207 14.14 8.97405 14.0971C9.451 13.9533 9.88966 13.3984 10.0117 12.7847C10.1024 12.3283 10.3018 9.53558 10.2939 8.83206C10.2874 8.25686 10.2578 8.06961 10.1338 7.81571C9.91947 7.37722 9.54342 7.0059 9.17626 6.87001C8.76734 6.71875 7.52805 6.72031 7.1449 6.87253ZM13.9791 7.57086C13.0088 7.65999 12.5166 7.95234 12.2092 8.62187C11.8314 9.44518 11.9837 9.89376 13.1503 11.3926C13.7354 12.1444 13.9767 12.3673 14.4122 12.5581C14.7949 12.7257 14.837 12.7279 17.7051 12.7282C19.681 12.7285 20.8499 12.6974 21.3591 12.631C23.0471 12.4112 23.9106 12.0513 24.3189 11.3976C24.5125 11.0876 24.5411 10.9805 24.5411 10.5648C24.5411 9.73537 24.138 9.18014 23.1912 8.70514C22.1658 8.19081 19.9306 7.70267 18.1836 7.6116C16.7086 7.53464 14.5959 7.51423 13.9791 7.57086ZM7.42879 16.0586C7.02588 16.182 6.58155 16.511 6.38071 16.8346C6.07746 17.3231 6.0238 18.2685 6.14787 20.9383C6.21425 22.3669 6.32274 22.7181 6.82655 23.1357C7.2151 23.4577 7.57235 23.5489 8.30906 23.514C8.82948 23.4894 8.97802 23.4527 9.24455 23.2831C9.60289 23.0551 9.80052 22.7887 9.94804 22.3345C10.0456 22.0344 10.3209 18.9966 10.3218 18.21C10.3231 17.2256 9.8332 16.3699 9.13566 16.1381C8.64087 15.9735 7.82972 15.9358 7.42879 16.0586ZM13.5618 16.9529C12.8057 17.1411 12.3504 17.5004 12.1234 18.0885C11.9985 18.4121 12.0073 18.956 12.1422 19.245C12.3303 19.6481 13.5409 21.2281 13.8936 21.5307C14.4816 22.0354 14.6354 22.0607 17.3478 22.0988C20.6418 22.1451 22.2533 21.9946 23.3626 21.5371C24.1284 21.2211 24.5424 20.6403 24.5395 19.8858C24.5339 18.3802 22.9347 17.5375 19.1065 17.0232C17.9142 16.863 14.1163 16.8148 13.5618 16.9529ZM7.18714 25.4102C6.88889 25.5274 6.45303 25.9269 6.3211 26.2039C6.12682 26.6118 6.09715 27.1248 6.14541 29.2422C6.19039 31.2148 6.20407 31.3825 6.34755 31.7285C6.67096 32.5081 7.17942 32.8047 8.1923 32.8047C8.70082 32.8047 8.84561 32.7755 9.14871 32.6115C9.52695 32.4068 9.7729 32.1164 9.9436 31.6728C10.0811 31.3154 10.2881 28.785 10.2881 27.461C10.2881 26.8373 10.2658 26.7065 10.0948 26.3285C9.74487 25.5548 9.26533 25.3056 8.14328 25.3143C7.74386 25.3174 7.31361 25.3606 7.18714 25.4102ZM13.6719 26.2842C12.5929 26.4532 11.9585 27.1935 12.0518 28.1747C12.0985 28.666 12.1907 28.823 13.0885 29.9399C14.2378 31.3697 14.1976 31.357 17.5684 31.3549C21.8834 31.3523 23.3281 31.1108 24.1316 30.2579C24.4427 29.9277 24.5436 29.6686 24.5486 29.1869C24.5542 28.6545 24.4907 28.4763 24.1433 28.0493C23.8316 27.6662 23.312 27.3439 22.5586 27.0661C21.8039 26.7879 19.9366 26.4179 18.7647 26.3144C17.5354 26.2058 14.295 26.1866 13.6719 26.2842Z" fill="#F2EBDD"/>
</svg>
