<svg width="28" height="28" fill="none" xmlns="http://www.w3.org/2000/svg"><path fill-rule="evenodd" clip-rule="evenodd" d="M12.293.493c-.801.075-2.083.351-2.898.625-1.424.477-3.11 1.41-4.307 2.383-.908.739-1.956 1.882-2.647 2.89-2.12 3.09-2.9 6.793-2.179 10.35.443 2.181 1.52 4.42 2.94 6.11.51.607 1.516 1.597 2.064 2.031 2.396 1.9 5.66 3.011 8.859 3.016 4.008.005 7.876-1.511 10.558-4.139.795-.778.952-1.091.768-1.53-.096-.23-.612-.631-1.135-.882-.526-.252-.774-.25-1.883.022-1.341.328-1.588.36-2.73.36-1.15 0-1.761-.09-2.762-.409-.736-.234-2.064-.911-2.652-1.353-1.322-.992-2.467-2.479-3.043-3.951-.493-1.26-.68-2.37-.632-3.74.046-1.313.304-2.323.91-3.562.824-1.683 2.341-3.214 4.024-4.06.558-.28 1.33-.54 2.241-.755.87-.204.877-.207 1.135-.463.227-.225.26-.285.26-.486 0-.36-.173-.615-.805-1.185-.644-.582-.806-.67-1.613-.874-1.649-.418-2.991-.537-4.473-.398zm-.137 1.773c-1.773.274-3.874 1.355-5.338 2.746-3.15 2.995-4.117 7.813-2.563 12.761.248.79.269 1.023.106 1.17-.153.138-.464.124-.627-.03-.363-.34-.87-2.21-1.1-4.054-.109-.87-.12-2.424-.024-3.164.304-2.346 1.183-4.316 2.622-5.88.11-.12.311-.34.446-.49l.244-.273-.341.291c-.434.37-.974.953-1.345 1.451-1.425 1.915-2.388 4.714-2.388 6.936 0 .663.004.687.162.926.132.2.199.426.358 1.226.317 1.591.666 2.665 1.214 3.736.327.639 1.078 1.803 1.192 1.846.04.015.172-.038.295-.12.194-.128.263-.144.533-.122.285.024.328.046.534.274.123.137.408.54.634.896.297.47.56.799.957 1.197.3.302.613.583.695.625.136.07.163.063.344-.074.473-.36.758-.32 1.572.228 1.07.72 1.912 1.055 3.132 1.246.724.114 2.412.088 3.27-.05.664-.107 1.724-.342 2.085-.462.246-.082.286-.12.434-.413.193-.381.455-.57 1.363-.985.323-.147.579-.276.569-.286-.01-.01-.238.02-.507.069-.751.133-2.344.077-3.25-.115-2.095-.442-3.982-1.45-5.462-2.92a11.226 11.226 0 0 1-2.905-5.058c-.272-1.026-.348-1.607-.351-2.687-.005-1.764.348-3.28 1.148-4.923.525-1.08 1.593-2.513 2.415-3.24.425-.377 1.15-.906 1.45-1.06.197-.1.205-.115.205-.39 0-.186.046-.384.132-.568l.131-.282-.118-.032c-.214-.057-1.422-.024-1.923.054zm-1.703.852c-.107.036-.388.29-.736.661-.31.332-.897.897-1.304 1.257-.408.36-.809.73-.891.824-.184.208-.206.497-.045.583.237.127.368.06 1.258-.634.486-.38 1.258-.94 1.715-1.244.681-.455.853-.596.96-.79.107-.194.12-.262.072-.367-.116-.255-.67-.411-1.03-.29zM5.873 8.33c-.408.407-1.025 1.924-1.29 3.173-.143.67-.207 2.086-.117 2.567.036.191.11.377.18.451a.433.433 0 0 0 .573.03c.245-.198.28-.341.622-2.528.143-.917.391-2.025.634-2.826.216-.71.223-.8.076-.947-.178-.178-.453-.145-.678.08z" fill="#0C0C0C"/></svg>