<svg width="43" height="36" viewBox="0 0 43 36" fill="none" xmlns="http://www.w3.org/2000/svg">
<path fill-rule="evenodd" clip-rule="evenodd" d="M8.53079 0.0348633C7.89007 0.12041 6.97327 0.615527 5.77122 1.5251C4.37122 2.58447 3.55833 3.41055 3.42874 3.90566C3.22161 4.69687 3.21907 4.69395 6.15862 7.07871C8.02864 8.5959 9.83997 10.4181 10.2109 11.1554C10.3581 11.4481 10.5878 11.8526 10.7213 12.0544C11.0165 12.5005 12.6007 13.7079 15.0335 15.3411C16.9086 16.5999 17.8912 17.3283 20.3069 19.2502C21.9026 20.5196 25.1871 22.9335 26.5688 23.8521C27.421 24.4187 29.3731 25.8291 29.8394 26.2152C31.939 27.9539 34.9659 29.754 36.232 30.017C36.5248 30.0778 37.1473 30.1093 37.6154 30.0869C38.701 30.035 39.1269 29.7888 40.1218 28.6377C41.1177 27.4855 41.4125 26.9466 41.4125 26.2784C41.4125 25.0961 40.9209 24.1995 39.4151 22.6349C38.54 21.7256 38.1621 21.2524 35.9591 18.3066C34.8749 16.8569 33.836 15.811 31.6957 14.0149C30.7289 13.2036 29.8061 12.4162 29.6449 12.265C26.943 9.73193 25.3689 8.45459 22.809 6.71748C20.1547 4.91641 16.8507 2.61055 16.3637 2.21934C16.141 2.04053 15.5112 1.73818 14.8989 1.51621C11.4541 0.267481 9.75276 -0.12832 8.53079 0.0348633ZM8.43685 2.46514C6.889 2.87881 6.06097 3.57354 6.06097 4.4585C6.06097 4.93066 6.43607 5.34326 7.06487 5.5625C7.48499 5.70908 7.84095 5.73691 9.08831 5.721C10.796 5.69932 10.9899 5.75674 11.0948 6.31602C11.1291 6.49912 11.0872 7.05654 11.0017 7.55469C10.733 9.11846 10.8174 9.93408 11.3288 10.7176C11.8464 11.5106 13.1641 11.973 14.2455 11.741C14.6566 11.6529 14.8782 11.5028 15.6937 10.7605C16.8629 9.69619 17.5794 9.30459 18.3569 9.30518C19.0063 9.30557 19.446 9.53545 19.7024 10.0085C19.9255 10.42 19.9181 11.4774 19.6841 12.6248C19.3587 14.2202 19.5876 15.3451 20.3791 16.0401C21.1067 16.6789 21.6075 16.7538 22.9555 16.4255C24.9709 15.9346 26.4657 16.0907 27.2148 16.8703C27.7808 17.4593 28.0118 17.9915 28.9758 20.9259C29.9788 23.9795 30.2536 24.5053 31.4289 25.6199C33.354 27.4457 35.4109 27.7374 36.3627 26.3196C36.9411 25.4583 36.9078 24.0032 36.2739 22.431C35.5376 20.6052 34.5492 19.5404 34.0967 20.0856C34.0089 20.1915 34.0499 20.4139 34.28 21.0779C34.6362 22.1056 34.6534 22.5396 34.3556 22.9866C34.0575 23.4342 33.525 23.6796 32.8385 23.6858C32.2385 23.6913 31.8271 23.5303 31.4874 23.1568C30.8249 22.4284 30.7847 21.5688 31.3477 20.1711C31.8735 18.8657 31.93 18.3629 31.6387 17.5825C31.3762 16.8791 31.0168 16.4865 29.5473 15.298C29.0102 14.8637 28.1533 14.0828 27.643 13.5629C26.574 12.4736 26.1144 12.2089 24.9086 11.988C23.293 11.6921 22.6494 11.2186 21.3279 9.35361C20.2135 7.78115 19.3 7.03027 18.1215 6.71855C16.9515 6.40889 16.1454 6.74248 15.2 7.92734C14.896 8.3083 14.5194 8.68613 14.3629 8.76709C13.9538 8.97861 13.1131 8.95596 12.7313 8.72315C11.9763 8.26279 11.9033 7.63848 12.4511 6.32627C12.9391 5.15732 13.0152 4.28135 12.6842 3.64209C12.4274 3.14609 11.7984 2.62695 11.2587 2.46563C10.5735 2.26074 9.20218 2.26055 8.43685 2.46514ZM1.56995 5.98291C0.164678 7.75732 -0.267548 9.26514 0.154815 10.92C0.35335 11.6979 1.08148 13.1971 1.64437 13.9868C2.15081 14.6974 4.14329 16.7376 5.57269 18.0094C8.29114 20.4279 10.3199 22.0251 12.8969 23.7757C15.758 25.7192 17.7059 27.2441 21.7806 30.7305C24.0618 32.6822 25.0186 33.4224 25.8364 33.8677C26.2123 34.0724 27.1221 34.6292 27.858 35.105C29.871 36.4065 31.22 36.842 33.2429 36.8432C35.8527 36.8447 38.1034 36.0025 39.8022 34.3889C40.9679 33.2814 41.895 31.7835 42.2388 30.4513C42.4296 29.7122 42.4287 29.3779 42.2357 29.1848C42.0657 29.0148 41.8032 28.9788 41.8032 29.1254C41.8032 29.1772 41.5396 29.5013 41.2174 29.8456C38.9782 32.2395 35.4915 31.7261 31.2854 28.3835C29.0563 26.612 27.6886 25.6519 25.8364 24.558C25.4604 24.336 24.6254 23.7378 23.9809 23.2286C19.5401 19.7207 18.9195 19.2512 14.3129 15.9141C13.7221 15.486 12.5136 14.5135 11.6274 13.7527C10.7411 12.992 9.06693 11.5933 7.90677 10.6443C5.61185 8.76728 4.71321 7.88574 3.96136 6.77451C3.3471 5.8667 3.08714 5.67129 2.41956 5.61592C1.9014 5.57295 1.89124 5.57734 1.56995 5.98291ZM2.31751 11.0301C2.1429 11.2046 2.32112 11.5667 3.09573 12.611C4.17874 14.0714 4.14417 14.0412 4.06331 13.4552C3.98792 12.9081 3.65892 12.1238 3.21312 11.4288C2.97747 11.0614 2.86019 10.9649 2.64905 10.9649C2.50247 10.9649 2.35325 10.9942 2.31751 11.0301ZM7.52581 15.844C7.52581 15.8957 7.77386 16.2144 8.07708 16.5521C8.87327 17.4389 9.15423 17.8504 9.3348 18.3939C9.49769 18.8845 9.76527 19.0712 10.1135 18.9375C10.3001 18.8659 10.3073 18.2961 10.1268 17.871C9.81019 17.1254 7.52581 15.3451 7.52581 15.844ZM13.0232 19.5587C13.3996 20.1673 14.0688 21.5234 14.0688 21.6775C14.0688 21.8681 14.3357 21.8309 14.5571 21.6095C15.0117 21.1548 14.6316 20.4337 13.5322 19.665L12.7514 19.1192L13.0232 19.5587ZM17.0229 23.139C16.6459 23.2911 17.3191 24.1929 18.4753 25.0845C19.0787 25.5499 19.9282 26.0331 19.9282 25.911C19.9282 25.8292 19.2036 24.9258 18.3624 23.9587C17.9546 23.4897 17.3515 23.043 17.179 23.082C17.1603 23.0862 17.0901 23.1119 17.0229 23.139ZM22.9589 27.2671C22.7756 27.6097 22.8527 27.8653 23.2735 28.3107C23.5977 28.6539 23.7773 28.7624 24.0909 28.8045C24.6224 28.8758 24.6901 28.7361 24.3804 28.2076C24.1704 27.8494 23.3076 27.0782 23.1167 27.0782C23.0856 27.0782 23.0146 27.1632 22.9589 27.2671ZM28.287 30.3085C28.3632 30.635 28.472 30.989 28.5288 31.0951C28.6527 31.3264 30.0433 31.9811 30.3251 31.9406C30.4569 31.9218 30.5338 31.8268 30.5534 31.6587C30.5778 31.4482 30.4701 31.3148 29.9186 30.8717C29.1157 30.2269 28.3748 29.7149 28.2445 29.7149C28.1865 29.7149 28.2033 29.9494 28.287 30.3085ZM33.4377 33.0352C33.0105 33.2074 33.035 33.8526 33.4751 34.02C34.0488 34.2381 34.4715 33.4417 33.9689 33.0897C33.7243 32.9183 33.7268 32.9186 33.4377 33.0352Z" />
</svg>
