<svg width="38" height="38" viewBox="0 0 38 38" fill="none" xmlns="http://www.w3.org/2000/svg">
<path fill-rule="evenodd" clip-rule="evenodd" d="M11.541 0.286336C10.069 0.867914 9.37709 1.31553 7.94052 2.61554C7.54627 2.97239 6.81736 3.5363 6.32077 3.86865C4.59132 5.02632 4.25852 5.35303 3.26889 6.86516C2.0045 8.79707 0.799559 11.281 0.208555 13.1738L0 13.8418L0.000445316 19.2227C0.000964847 25.1832 -0.00304296 25.1276 0.457855 25.5323C0.787758 25.822 1.04314 25.8158 1.49462 25.5073C1.94342 25.2006 5.9375 22.4756 9.24023 20.2229C10.6077 19.2901 13.2544 17.5126 15.1216 16.2728C18.3571 14.1245 18.7972 13.7904 18.9184 13.39C18.9442 13.3047 19.4136 11.067 19.9616 8.4173C21.51 0.929442 21.6285 0.367086 21.6725 0.295836C21.6953 0.259023 21.6142 0.177457 21.4924 0.11452C21.3158 0.0231563 20.9874 0 19.8693 0H18.4676L16.8561 0.59234C14.8142 1.34291 14.08 1.69709 12.8488 2.52552C12.3045 2.89171 11.8222 3.19141 11.7769 3.19141C11.7317 3.19141 11.6568 3.1206 11.6105 3.03414C11.535 2.89297 11.583 2.82128 12.0787 2.33514C12.9669 1.46404 14.1007 0.789613 15.5801 0.252121L16.2539 0.00742187L14.25 0.00757031L12.2461 0.00771875L11.541 0.286336ZM22.8066 0.27832C22.5401 0.554637 22.5347 0.573191 22.0465 2.89453C21.3774 6.07621 20.0762 12.5873 20.0762 12.7535C20.0762 13.067 20.5775 12.8081 22.8965 11.297C25.4865 9.60932 27.9025 8.06906 31.9164 5.54689C33.3872 4.62264 34.6674 3.78456 34.7615 3.68444C35.1288 3.29346 35.138 2.48855 34.7833 1.77865C34.5272 1.2661 33.9239 0.768832 33.0239 0.328492L32.3525 0L30.5005 0.00719922C28.725 0.0141016 28.6607 0.0193711 28.9453 0.133148C29.6597 0.418742 31.1376 1.21251 31.5801 1.54813C32.2304 2.04139 32.9332 2.78684 32.9022 2.95034C32.8513 3.21894 32.524 3.14079 31.9853 2.73155C30.8089 1.83773 29.0101 0.930852 27.0222 0.229188L26.373 0H24.724H23.0751L22.8066 0.27832ZM27.2007 2.3701C26.4111 2.61027 25.913 3.24967 25.9199 4.01382C25.9333 5.48729 27.7395 6.25011 28.8662 5.25832C29.2803 4.89384 29.4666 4.44058 29.4004 3.95816C29.2577 2.91709 28.1149 2.09208 27.2007 2.3701ZM27.0717 2.86818C26.9393 2.93342 26.764 3.09529 26.6821 3.22777C26.389 3.70203 26.5559 4.54857 26.9627 4.65062C27.4162 4.76447 28.2372 4.44667 28.4242 4.085C28.8463 3.26882 27.9304 2.44484 27.0717 2.86818ZM15.6887 3.73914C14.9937 3.98748 14.5847 4.58286 14.5864 5.34375C14.5893 6.65126 15.983 7.45691 17.1864 6.84668C17.9181 6.47566 18.2246 5.74461 17.9938 4.92055C17.7396 4.01241 16.5828 3.41955 15.6887 3.73914ZM15.7267 4.18809C15.3639 4.34603 15.1486 4.70911 15.1443 5.17015C15.1412 5.49813 15.1728 5.59498 15.3364 5.75871C15.4947 5.91709 15.6014 5.9545 15.8931 5.95383C16.6442 5.95212 17.2559 5.51668 17.2559 4.98349C17.2559 4.63815 17.1034 4.41772 16.7344 4.2295C16.4009 4.05932 16.0551 4.04514 15.7267 4.18809ZM33.667 5.72078C33.5698 5.75967 32.8517 6.18814 32.0713 6.67286C31.2908 7.15758 29.8842 8.03106 28.9453 8.6139C27.3388 9.61125 24.3857 11.4969 22.1729 12.9383C21.6319 13.2906 21.1902 13.6047 21.1912 13.6361C21.1921 13.6676 21.4676 13.8752 21.8035 14.0975C22.1393 14.3198 24.251 15.7176 26.4961 17.2038C28.7412 18.69 30.7618 19.9988 30.9863 20.1121C31.2108 20.2254 31.7673 20.4706 32.223 20.6569C33.9569 21.3659 34.641 21.7931 34.9207 22.3415C35.1484 22.7877 35.4311 23.0736 35.7345 23.1645C35.9762 23.2369 36.0614 23.2288 36.3042 23.1102C37.1229 22.7104 37.3405 21.1379 36.9604 18.3691C36.8596 17.6344 36.7766 16.772 36.7762 16.4526L36.7754 15.872L37.0826 15.5991C37.7825 14.9773 37.9059 14.1592 37.5232 12.6779C37.4039 12.2159 37.0881 11.2988 36.8215 10.6399C36.5491 9.96684 36.1872 8.88124 35.9956 8.16228C35.5417 6.45911 35.2618 5.94166 34.6739 5.71959C34.4201 5.6237 33.908 5.6243 33.667 5.72078ZM9.80467 6.29843C8.88658 6.92238 9.30859 8.38672 10.4065 8.38672C11.4753 8.38672 11.9699 7.1964 11.2079 6.45792C10.9764 6.23356 10.8927 6.20127 10.4829 6.17827C10.115 6.15771 9.9753 6.18242 9.80467 6.29843ZM10.0162 6.86189C9.65623 7.22178 9.88156 7.79297 10.3835 7.79297C10.7396 7.79297 11.0215 7.54701 11.0215 7.23633C11.0215 6.73914 10.3785 6.49963 10.0162 6.86189ZM6.40953 6.98532C6.03013 7.38759 5.32779 8.36059 4.92723 9.03881C2.91828 12.44 2.09787 15.7182 2.33678 19.3892C2.45293 21.174 2.58081 21.7111 2.90937 21.7936C3.22733 21.8734 3.2588 21.7558 3.1655 20.8362C3.05863 19.782 3.05484 17.5194 3.15838 16.5664C3.35892 14.7197 3.92061 12.7339 4.70799 11.0878C5.2129 10.0324 6.01847 8.65116 6.57244 7.89131C6.97159 7.3438 7.02837 7.08002 6.79287 6.86694C6.65074 6.73832 6.63902 6.74196 6.40953 6.98532ZM23.733 7.12233C23.1873 7.37 22.9744 7.9708 23.2221 8.56358C23.5612 9.37524 24.9203 9.37361 25.3082 8.56106C25.4566 8.2503 25.4468 7.97072 25.2742 7.59043C25.0116 7.01189 24.3913 6.82352 23.733 7.12233ZM24.0907 7.56801C23.8054 7.63652 23.6068 7.95655 23.6911 8.21201C23.8286 8.62882 24.5338 8.72872 24.7869 8.36727C24.9385 8.15093 24.9299 7.99893 24.7537 7.77486C24.5935 7.57128 24.3691 7.50129 24.0907 7.56801ZM15.4183 9.42111C14.6757 9.88705 14.7084 10.9882 15.4761 11.3739C16.6889 11.9832 17.813 10.5099 16.8485 9.57511C16.6171 9.35075 16.5332 9.31839 16.1235 9.29538C15.7543 9.2746 15.611 9.30013 15.4183 9.42111ZM15.6702 9.95073C15.3116 10.2328 15.4624 10.8468 15.9146 10.9461C16.1608 11.0002 16.5431 10.8372 16.616 10.6471C16.7086 10.4058 16.658 10.1571 16.4799 9.97908C16.2546 9.75368 15.9348 9.74247 15.6702 9.95073ZM29.1199 10.1692C28.5776 10.4556 28.1676 11.1058 28.1665 11.6808C28.1653 12.2957 28.6331 12.9903 29.2495 13.2886C29.7009 13.5072 30.2973 13.4609 30.8411 13.1649C31.7471 12.6718 31.9675 11.5853 31.3328 10.7416C30.8432 10.0909 29.7858 9.81729 29.1199 10.1692ZM29.2972 10.6129C28.9195 10.8431 28.7457 11.1774 28.7825 11.6033C28.8459 12.3385 29.433 12.553 30.2661 12.1454C30.8063 11.8811 30.986 11.5483 30.8302 11.1006C30.6368 10.5446 29.8301 10.288 29.2972 10.6129ZM8.36735 13.0086C7.5571 13.3176 7.08455 14.222 7.31084 15.0304C7.42752 15.4469 7.9109 16.0076 8.30961 16.1887C8.68144 16.3576 9.36908 16.3692 9.74359 16.213C10.3082 15.9776 10.7936 15.319 10.7972 14.7839C10.8018 14.0921 10.4073 13.4292 9.80964 13.1243C9.44315 12.9373 8.70868 12.8784 8.36735 13.0086ZM8.58778 13.4302C7.7877 13.6272 7.55064 14.726 8.21787 15.1446C8.80932 15.5158 9.98101 14.9362 9.98213 14.272C9.98316 13.6885 9.27512 13.261 8.58778 13.4302ZM19.8321 14.3677C19.6366 14.4695 19.4458 14.6265 19.4081 14.7168C19.3705 14.807 19.2362 15.5321 19.1098 16.3281C18.8099 18.2166 18.124 22.099 17.523 25.3086C17.2594 26.7169 16.9426 28.4369 16.8189 29.1309C16.4436 31.2376 15.9937 33.8091 15.7622 35.1713L15.5429 36.4617L15.7129 36.8003C15.9776 37.3276 16.1752 37.4314 16.981 37.4667C17.8775 37.5059 19.7976 37.3645 20.8794 37.1795C23.2401 36.7759 26.3423 35.2325 29.0566 33.1111C31.6492 31.085 34.37 28.0533 35.235 26.2269C35.4408 25.7924 35.4766 25.6344 35.4766 25.1602C35.4766 24.7337 35.4412 24.5432 35.3252 24.346C35.1685 24.0792 32.9973 22.5949 26.9785 18.6403C25.5294 17.6881 23.4346 16.2941 22.3234 15.5424C21.2122 14.7908 20.2771 14.1773 20.2453 14.1793C20.2135 14.1811 20.0276 14.266 19.8321 14.3677ZM24.9247 14.8134C24.8084 15.1164 25.5414 16.0254 26.3228 16.5471C27.0083 17.0049 28.2562 17.3469 28.5007 17.1439C28.7083 16.9717 28.6115 16.8545 28.0361 16.5816C27.3192 16.2415 26.873 15.9567 26.1621 15.3858C25.6169 14.9479 25.2102 14.6953 25.0502 14.6953C25.0061 14.6953 24.9496 14.7485 24.9247 14.8134ZM16.507 16.3925C15.295 17.1687 8.8281 21.5064 6.82812 22.8847C6.175 23.3348 4.78896 24.2836 3.74805 24.9931C2.70713 25.7026 1.74689 26.3974 1.61426 26.537C1.19136 26.9819 1.28807 27.294 2.32965 28.8465C3.19497 30.1361 4.09509 31.2249 5.2679 32.4006C7.33207 34.4699 9.27964 35.6946 11.8629 36.5478C13.2112 36.9931 13.3516 37.0116 13.7656 36.7982C14.2288 36.5593 14.3862 36.2016 14.6221 34.8515C14.7285 34.2423 15.2962 31.3199 15.8836 28.3574C16.9297 23.0815 17.3301 20.9946 17.3301 20.8167C17.3301 20.7638 17.1686 20.7111 16.9314 20.6866C16.7121 20.664 16.4031 20.5789 16.2449 20.4975C15.1855 19.9528 14.9219 18.4941 15.7436 17.7237C16.2351 17.2627 17.092 17.1454 17.5748 17.4731L17.8402 17.6532L17.9497 17.1577C18.01 16.8851 18.0813 16.4921 18.1082 16.2845C18.1533 15.9361 18.1425 15.8973 17.9689 15.7835C17.8653 15.7157 17.7514 15.6602 17.7156 15.6602C17.6799 15.6602 17.1361 15.9898 16.507 16.3925ZM31.3589 16.4209C30.1612 17.0328 30.2006 18.7688 31.4264 19.3896C32.9579 20.1653 34.5436 18.6224 33.698 17.1795C33.2075 16.3426 32.1704 16.0063 31.3589 16.4209ZM31.8039 16.7003C31.4725 16.7792 31.0845 17.2011 31.0181 17.555C30.9508 17.914 31.1268 18.2857 31.4411 18.4483C31.9643 18.7188 32.8815 18.3877 33.1076 17.8466C33.3826 17.1885 32.6094 16.5086 31.8039 16.7003ZM21.3371 17.3115C20.8037 17.6746 20.6172 18.2278 20.8577 18.7344C21.2409 19.542 22.4297 19.5998 22.8969 18.8337C23.0936 18.511 23.0902 18.0146 22.889 17.6891C22.5724 17.1768 21.8082 16.9909 21.3371 17.3115ZM16.3124 17.8592C15.7558 18.1336 15.6287 19.0171 16.0808 19.4691C16.2823 19.6706 16.3249 19.6826 16.6771 19.6359C17.3685 19.5442 17.6781 19.2774 17.7545 18.7074C17.8057 18.3256 17.6641 17.984 17.3975 17.8461C17.1251 17.7052 16.6122 17.7114 16.3124 17.8592ZM21.4992 17.91C21.2852 18.1379 21.2936 18.4428 21.5201 18.6694C21.8166 18.9659 22.2329 18.891 22.4391 18.5039C22.568 18.2618 22.5451 18.1223 22.3432 17.9205C22.1022 17.6794 21.7203 17.6747 21.4992 17.91ZM23.2305 20.3106C22.6353 20.6238 22.3027 21.1515 22.3027 21.7826C22.3027 22.2793 22.4502 22.6619 22.7704 22.9956C23.061 23.2986 23.2947 23.4253 23.7521 23.5278C24.5628 23.7095 25.5336 23.0988 25.7031 22.3004C25.8804 21.4658 25.4829 20.7064 24.6777 20.3419C24.2678 20.1564 23.5529 20.141 23.2305 20.3106ZM23.4206 20.6942C22.9494 20.9469 22.7466 21.6863 23.0091 22.194C23.1428 22.4525 23.3694 22.5232 23.8727 22.4636C25.0442 22.3249 25.3616 21.1589 24.3524 20.7006C23.9658 20.525 23.7389 20.5235 23.4206 20.6942ZM28.5331 22.365C27.9938 22.7394 27.8829 23.4249 28.2776 23.9425C28.5615 24.3147 28.8542 24.4408 29.3405 24.4005C29.7019 24.3705 29.7805 24.3324 30.0285 24.0665C30.5181 23.5417 30.494 22.8348 29.9731 22.4375C29.5844 22.1411 28.9049 22.1069 28.5331 22.365ZM13.0005 22.645C12.4281 22.947 12.2836 23.7713 12.7134 24.2822C13.232 24.8985 14.1136 24.847 14.6143 24.1713C14.8287 23.882 14.8295 23.2489 14.6158 22.9576C14.2776 22.4965 13.5491 22.3556 13.0005 22.645ZM28.7935 22.8931C28.6933 22.9933 28.6113 23.1618 28.6113 23.2676C28.6113 23.5449 28.9197 23.8242 29.2259 23.8242C29.5313 23.8242 29.7988 23.5691 29.7988 23.278C29.7988 23.0003 29.4958 22.7109 29.2051 22.7109C29.0605 22.7109 28.9083 22.7783 28.7935 22.8931ZM13.3456 23.0797C12.8002 23.3089 13.0297 24.1211 13.6399 24.1211C14.1138 24.1211 14.4088 23.505 14.0781 23.2058C13.9078 23.0516 13.5565 22.9911 13.3456 23.0797ZM18.9565 23.0749C18.4076 23.2521 18.1463 23.6065 18.1468 24.173C18.1473 24.8362 18.5646 25.2404 19.2544 25.2457C19.9281 25.2509 20.3809 24.867 20.4272 24.2516C20.4598 23.8157 20.305 23.4447 19.9945 23.2147C19.7864 23.0607 19.2319 22.986 18.9565 23.0749ZM18.814 23.8045C18.5193 24.1793 18.7897 24.7148 19.2737 24.7148C19.536 24.7148 19.9277 24.3606 19.9277 24.1234C19.9277 23.641 19.1238 23.4107 18.814 23.8045ZM8.27665 25.0749C7.75007 25.3573 7.56727 25.8784 7.79007 26.4617C8.1323 27.3578 9.42229 27.4249 9.85239 26.5688C10.355 25.5685 9.27155 24.5413 8.27665 25.0749ZM8.64648 25.5097C8.3983 25.6009 8.27539 25.7822 8.27539 26.0569C8.27539 26.647 8.99294 26.8423 9.36774 26.3541C9.68911 25.9356 9.16305 25.3197 8.64648 25.5097ZM26.5256 25.9224C26.0281 26.2547 25.8692 26.9298 26.1807 27.3875C26.5587 27.943 27.0846 28.1046 27.6707 27.8454C28.7754 27.3567 28.3823 25.7539 27.1578 25.7539C26.8863 25.7539 26.7058 25.802 26.5256 25.9224ZM26.7501 26.4904C26.4872 26.7533 26.4765 26.9415 26.7091 27.2119C26.9226 27.46 27.333 27.492 27.5686 27.2787C27.7989 27.0703 27.7761 26.6247 27.5251 26.4273C27.2542 26.2141 27.0063 26.2343 26.7501 26.4904ZM4.00343 26.5032C3.92669 26.6274 4.10496 26.7573 4.68951 27.0032C5.84866 27.4908 6.55285 28.1118 7.22438 29.2385C7.80685 30.2157 8.3793 30.8103 9.04489 31.1292C9.71531 31.4504 9.97114 31.5103 10.0289 31.3597C10.0581 31.2839 9.80704 30.9866 9.25961 30.4488C8.62563 29.8259 8.34315 29.4791 7.97458 28.8711C7.39694 27.9183 6.78738 27.2907 6.08594 26.9267C5.27688 26.5069 4.14356 26.2765 4.00343 26.5032ZM12.543 26.6599C11.1592 27.1436 11.2309 29.2774 12.6468 29.7515C13.4994 30.0369 14.5396 29.5665 14.8493 28.7555C15.1426 27.9877 14.5765 26.9529 13.7009 26.6559C13.3949 26.5521 12.8459 26.554 12.543 26.6599ZM22.8228 26.8336C22.4491 27.0006 22.2376 27.2255 22.1506 27.5489C22.0457 27.9384 22.178 28.3901 22.4875 28.6996C22.7141 28.9262 22.7698 28.9453 23.2045 28.945C23.8089 28.9446 24.1123 28.7711 24.3168 28.3088C24.4785 27.9434 24.4578 27.6603 24.2424 27.2888C23.9828 26.8411 23.2976 26.6213 22.8228 26.8336ZM12.6851 27.0469C12.2488 27.2369 11.9776 27.788 12.0933 28.2493C12.1203 28.3568 12.2383 28.5407 12.3555 28.6579C12.6596 28.962 13.0184 28.948 13.5569 28.6112C14.191 28.2146 14.304 27.7171 13.8567 27.2905C13.4969 26.9473 13.1024 26.8653 12.6851 27.0469ZM22.8779 27.4596C22.4604 27.7879 22.7265 28.4258 23.2809 28.4258C23.5474 28.4258 23.8613 28.1309 23.8613 27.8807C23.8613 27.4219 23.2556 27.1626 22.8779 27.4596ZM18.6485 29.1677C18.2697 29.2817 17.9232 29.5509 17.7294 29.8816C17.561 30.169 17.5399 30.2761 17.5648 30.7182C17.6117 31.5476 18.0815 32.0574 18.8582 32.1218C20.4056 32.2501 21.204 30.3603 19.9897 29.4436C19.5909 29.1425 19.0806 29.0376 18.6485 29.1677ZM18.5652 29.6799C18.1057 29.9828 17.951 30.4994 18.1843 30.9507C18.3815 31.332 18.7357 31.4172 19.2425 31.2054C19.6252 31.0456 19.8431 30.8203 19.898 30.5279C20.0331 29.808 19.1872 29.2699 18.5652 29.6799ZM25.648 31.7709C24.6797 32.1965 23.7749 32.5205 22.4481 32.9164C21.9395 33.0682 21.3151 33.2865 21.0605 33.4016C20.2088 33.7868 18.8145 34.8706 18.8145 35.1475C18.8145 35.3888 19.0664 35.3123 20.2708 34.7057C21.247 34.214 21.7976 33.9918 22.766 33.6987C24.2551 33.2479 24.5723 33.1261 25.5036 32.6478C26.3136 32.2317 27.014 31.754 27.1289 31.5394C27.2008 31.405 27.1807 31.3947 26.8512 31.3963C26.5895 31.3976 26.2731 31.4961 25.648 31.7709Z" />
</svg>
