<svg width="47" height="43" viewBox="0 0 47 43" fill="none" xmlns="http://www.w3.org/2000/svg">
<path fill-rule="evenodd" clip-rule="evenodd" d="M35.0783 0.189132C32.5742 0.861214 30.4465 2.83695 29.5377 5.33432C28.2898 8.76344 29.4073 12.6459 32.2953 14.9146C33.2081 15.6317 34.0672 16.0393 35.2659 16.3243C35.8178 16.4554 36.2943 16.5893 36.3249 16.6216C36.3555 16.654 36.3503 17.4924 36.3136 18.4847L36.2466 20.289H34.0233C31.6733 20.289 31.472 20.3245 31.0911 20.8067C30.9221 21.0206 30.8407 21.0255 27.4176 21.0259C24.1459 21.0262 23.8965 21.0395 23.6056 21.2274C22.9381 21.6587 22.7967 22.9401 23.3236 23.7838L23.5721 24.1818H31.5436H39.5151L39.8263 23.8398C40.2287 23.3978 40.3488 23.0436 40.3461 22.3074C40.3433 21.5506 40.084 20.9331 39.6067 20.5474C39.2794 20.2828 39.1576 20.2507 38.4549 20.244L37.669 20.2364L37.6683 18.3788L37.6676 16.5212L38.1889 16.446C39.0781 16.3178 40.9443 15.515 40.9439 15.2608C40.9438 15.1614 39.4225 13.1304 37.7546 11.003C37.0107 10.0542 36.3517 9.17817 36.2902 9.05634C36.0921 8.66412 36.1692 8.33155 36.604 7.70166C37.0704 7.02621 38.73 4.45582 40.0111 2.42495L40.827 1.1315L40.4139 0.85427C40.1867 0.701821 39.6657 0.459838 39.2562 0.316542C38.2187 -0.0465382 36.1873 -0.108507 35.0783 0.189132ZM43.3504 0.263937C43.2815 0.293396 42.6284 1.27206 41.8992 2.43873C41.1699 3.60551 40.1651 5.18745 39.6663 5.95412C39.1675 6.72078 38.793 7.35362 38.834 7.36025C38.9945 7.38634 39.3856 7.32416 41.5893 6.92226C45.8428 6.14676 46.7166 5.95854 46.7717 5.8064C46.908 5.43007 46.23 3.62277 45.5382 2.51806C45.1798 1.94582 43.6583 0.185555 43.5365 0.202178C43.503 0.206702 43.4193 0.234583 43.3504 0.263937ZM42.8601 3.34596C42.1782 3.78647 42.0755 4.6129 42.6252 5.23637C42.8644 5.50782 42.9842 5.55958 43.3732 5.55958C44.1178 5.55958 44.4567 5.28582 44.5695 4.59312C44.7423 3.53397 43.7216 2.78929 42.8601 3.34596ZM44.965 8.03917C44.3097 8.17279 42.612 8.50241 41.1922 8.77164C39.7724 9.04077 38.5947 9.27781 38.575 9.29822C38.5358 9.33894 40.1331 11.4817 41.089 12.6707C41.4188 13.081 41.9536 13.7587 42.2776 14.1766C42.8976 14.9764 43.0851 15.1337 43.4192 15.1337C43.8925 15.1337 45.4512 13.2123 46.0992 11.8302C46.5431 10.8833 46.9997 9.21563 47 8.53923C47.0003 8.02318 46.8019 7.7632 46.4224 7.78256C46.276 7.79003 45.6203 7.90545 44.965 8.03917ZM41.8688 9.39038C41.2716 9.67603 41.0466 10.6339 41.4492 11.1762C41.6959 11.5086 42.1358 11.767 42.4549 11.767C43.0839 11.767 43.7189 10.8829 43.578 10.2032C43.4292 9.48539 42.5472 9.06591 41.8688 9.39038ZM5.7419 11.748C4.73229 12.4195 4.32523 13.6914 4.76386 14.8038C5.19128 15.8879 6.50867 16.4673 7.49495 16.005C7.92704 15.8024 8.57754 15.2108 8.57754 15.0204C8.57754 14.9633 9.78096 14.9233 11.5017 14.9233C13.4636 14.9233 14.507 14.8841 14.6721 14.8044C15.0267 14.6332 15.1974 14.148 15.0237 13.8043C14.8121 13.385 14.4334 13.2408 13.5219 13.232C13.0686 13.2277 11.815 13.1448 10.7359 13.0479L8.77392 12.8717L8.58032 12.534C8.47389 12.3483 8.19838 12.0642 7.96814 11.9027C7.41026 11.5114 6.22174 11.4288 5.7419 11.748ZM9.04199 17.0538C8.95313 17.7627 8.78961 19.2185 8.67841 20.289C8.48729 22.131 8.36577 23.1892 8.0294 25.9446C7.75964 28.1539 7.56962 28.3735 5.33901 29.054C4.01308 29.4586 3.35721 29.7782 2.45254 30.461C1.49693 31.1822 0.43311 32.4981 0.0783697 33.3978C-0.211538 34.1332 0.337401 34.9968 1.15689 35.0948C1.77969 35.1692 2.12282 34.9403 2.64694 34.1012C2.89197 33.7087 3.19856 33.2692 3.32812 33.1244C5.35797 30.8568 8.44053 30.6186 10.6807 32.5562C11.0156 32.8458 11.6792 33.6606 12.3133 34.5605C12.9241 35.4273 13.4691 36.0992 13.5858 36.1291C13.6981 36.1579 19.9108 36.1683 27.3918 36.1523L40.9936 36.1231L41.3178 35.8781C41.9253 35.4189 41.9829 35.1817 42.019 32.989L42.0517 31.0123L41.7708 31.0882C41.0699 31.2778 40.7869 31.0599 40.0008 29.7249C38.5056 27.1859 37.2268 26.1616 34.8629 25.6092C34.6772 25.5659 34.5898 25.4788 34.5898 25.3371C34.5898 25.1319 34.5064 25.1286 29.2255 25.1286C24.782 25.1286 23.852 25.1534 23.8089 25.2724C23.7803 25.3515 24.0524 26.0734 24.4137 26.8768C25.3284 28.9114 25.3927 29.152 25.3347 30.3259C25.2943 31.1451 25.24 31.3943 24.9989 31.8681C24.6438 32.5656 24.0382 33.0683 23.3702 33.2201C23.0921 33.2834 22.0927 33.335 21.1494 33.335C18.3738 33.335 16.6924 32.9108 15.1471 31.8207C13.4757 30.6415 12.1918 28.7238 11.7235 26.7068C11.3866 25.2553 11.3279 24.2267 11.3966 20.9729C11.472 17.4064 11.4253 17.0263 10.8389 16.4249C10.4635 16.04 9.90129 15.765 9.48936 15.765H9.20343L9.04199 17.0538ZM37.8215 25.215C37.8734 25.2625 38.215 25.5486 38.5807 25.8508C38.9463 26.1531 39.4563 26.6468 39.7141 26.948C40.2256 27.5462 41.1426 28.9952 41.1426 29.2055C41.1426 29.4189 41.5223 29.7583 41.6863 29.6916C42.2189 29.4751 41.2435 27.3347 39.9066 25.7862L39.3388 25.1286H38.533C38.0898 25.1286 37.7697 25.1675 37.8215 25.215ZM6.54223 32.1875C5.59159 32.3346 4.62824 32.9014 3.89424 33.7451C2.68288 35.138 2.24275 36.2923 2.36656 37.7519C2.60405 40.5524 4.66815 42.7644 7.24804 42.9827C8.10495 43.0553 8.77671 42.905 9.72993 42.4275C11.3761 41.6029 12.5135 39.8858 12.7527 37.8644C12.8689 36.8826 12.87 36.8859 11.9156 35.3943C11.1889 34.2588 10.1846 33.1015 9.6235 32.753C8.72716 32.1963 7.70156 32.0081 6.54223 32.1875ZM6.77872 34.8416C5.88249 35.1969 5.33345 35.754 5.05496 36.5907C4.73686 37.546 4.91209 38.547 5.52705 39.2873C6.35568 40.2849 7.35526 40.5957 8.39625 40.1794C10.181 39.4657 10.7458 37.2057 9.52312 35.6708C8.92891 34.9248 7.58957 34.5201 6.77872 34.8416ZM29.7401 37.1086C29.5558 37.235 29.7408 38.4785 30.0751 39.3604C30.5916 40.7228 31.7945 42.0161 33.0308 42.5384C34.0244 42.9582 35.4627 43.0325 36.4467 42.7148C38.0938 42.1833 39.4015 40.746 39.9416 38.8738C40.0561 38.4771 40.1497 37.9208 40.1497 37.6376V37.1226H38.9622H37.7746L37.6659 37.5697C37.3319 38.9438 36.9532 39.5588 36.1591 40.0168C35.7209 40.2696 35.5239 40.3185 34.9779 40.3095C33.5055 40.2854 32.5903 39.4105 32.2643 37.715L32.1403 37.07L31.0071 37.0435C30.3838 37.029 29.8137 37.0582 29.7401 37.1086Z" fill="#F2EBDD"/>
</svg>
