<svg width="65" height="65" viewBox="0 0 65 65" fill="none" xmlns="http://www.w3.org/2000/svg">
<path fill-rule="evenodd" clip-rule="evenodd" d="M37.6679 10.8164C37.6243 10.9539 37.6215 11.1704 37.6619 11.2976C37.7336 11.5237 36.9503 14.2989 36.5551 15.2187C36.2656 15.8924 36.3008 16.3982 36.6623 16.7596C36.9825 17.0799 37.4591 17.1534 37.852 16.9433C38.241 16.7351 39.6054 12.7862 39.6054 11.8686C39.6054 10.9841 39.1651 10.5664 38.2329 10.5664C37.857 10.5664 37.7293 10.6229 37.6679 10.8164ZM24.5429 10.9608C23.9145 11.3044 23.8226 11.8042 24.2751 12.4174C24.493 12.7127 24.6093 13.1187 24.7206 13.9729C25.0084 16.1806 25.3213 16.8164 26.1194 16.8164C26.3026 16.8164 26.5836 16.7104 26.7436 16.5808C27.1188 16.2771 27.105 15.9394 26.616 13.4414C26.2689 11.6681 26.2045 11.4748 25.8565 11.1602C25.4554 10.7974 24.9749 10.7244 24.5429 10.9608ZM47.7304 18.4602C46.5793 19.5267 46.0611 19.9088 45.6453 19.9976C45.0168 20.1318 44.9231 20.3391 45.2243 20.9293C45.72 21.9012 46.6446 22.0519 47.6363 21.3227C48.3188 20.8207 49.7263 19.4511 49.7451 19.2706C49.7999 18.7477 49.5284 18.2227 49.0848 17.9933C48.578 17.7312 48.481 17.7647 47.7304 18.4602ZM30.1679 18.2674C27.4761 18.7479 24.9971 19.9972 22.4361 22.1637C19.8113 24.3842 18.3176 26.1379 17.5011 27.9577C15.903 31.5196 15.6706 37.0153 16.9835 40.1992C18.7909 44.5819 23.4141 47.6951 29.0484 48.3233C32.7309 48.7339 38.8424 47.1731 42.116 44.9858C43.7809 43.8734 45.5369 41.8344 46.5168 39.8758C47.0396 38.8309 47.6916 36.6894 47.8583 35.4698C48.1143 33.5968 47.9626 31.1796 47.4841 29.5039C46.9876 27.7654 46.0471 25.7836 45.1429 24.5706C42.728 21.3311 38.6534 18.7753 34.9804 18.1964C33.8471 18.0178 31.3606 18.0544 30.1679 18.2674ZM31.1348 20.3698C28.1056 20.9484 26.123 22.0459 22.9266 24.9134C21.3126 26.3614 20.2719 27.6459 19.6126 29.0039C18.8839 30.5048 18.6675 31.3592 18.473 33.5039C18.0998 37.6184 18.7458 40.2368 20.6326 42.2572C22.698 44.4688 25.9306 45.8453 29.4878 46.0279C31.1988 46.1158 32.3531 45.9709 34.7929 45.3617C40.0486 44.0493 43.0075 42.0057 44.6668 38.5419C45.7244 36.3341 46.1203 34.0004 45.8655 31.4754C45.5668 28.5136 44.4645 26.2686 42.306 24.2253C40.4534 22.4716 38.4384 21.2927 36.1554 20.6267C34.7635 20.2206 32.5173 20.1057 31.1348 20.3698ZM11.6166 21.9232C11.451 21.9708 11.2046 22.1583 11.0691 22.3398C10.605 22.9613 11.039 23.6471 12.2793 24.2517C13.5268 24.8598 14.2101 24.8847 16.5429 24.4074L17.2929 24.2539L17.2846 23.6548C17.2781 23.1762 17.2084 22.9877 16.9374 22.7173C16.6176 22.3981 16.5436 22.3814 15.6331 22.4229C13.4148 22.5242 13.311 22.5168 12.9103 22.2309C12.4549 21.9062 12.0283 21.8047 11.6166 21.9232ZM35.8758 27.9224C35.4233 28.3451 35.3014 28.7508 35.3901 29.5383C35.4424 30.0019 35.5469 30.2039 35.9038 30.5309C36.4239 31.0076 36.856 31.0544 37.4411 30.6977C37.968 30.3764 38.1519 30.0052 38.1421 29.2827C38.1233 27.8719 36.7878 27.0704 35.8758 27.9224ZM23.9655 28.2543C23.6135 28.4457 23.2304 29.1251 23.2304 29.5581C23.2304 29.9821 23.5534 30.6408 23.87 30.8626C24.231 31.1154 25.0026 31.1259 25.4698 30.8844C25.822 30.7023 26.2304 30.0282 26.2304 29.6289C26.2304 29.2232 25.8263 28.5688 25.4211 28.3184C24.9473 28.0256 24.4285 28.0027 23.9655 28.2543ZM52.9179 28.6399C52.5054 28.7349 51.6193 28.8502 50.9488 28.8961C49.5823 28.9893 49.4103 29.0908 49.5306 29.7326C49.6596 30.4204 50.3769 30.9422 51.1909 30.9403C52.0124 30.9384 55.2289 30.2316 55.4896 29.9956C55.8275 29.6898 55.789 29.2038 55.3945 28.7921C55.1011 28.4858 54.9706 28.4431 54.3633 28.4542C53.9808 28.4613 53.3304 28.5448 52.9179 28.6399ZM10.7304 30.9028C10.2113 30.9897 9.18589 31.3334 8.88664 31.5209C8.49389 31.7671 8.53176 32.2239 8.98814 32.7436C9.48239 33.3066 9.73376 33.3764 10.6028 33.1921C11.2164 33.0618 11.3721 33.0687 11.7051 33.2409C12.2355 33.5152 13.0125 33.5013 13.2735 33.2128C13.3879 33.0866 13.4804 32.7766 13.4804 32.5199C13.4804 32.1402 13.375 31.9431 12.9008 31.4361C12.3448 30.8416 12.2953 30.8172 11.682 30.8334C11.3305 30.8428 10.9023 30.8741 10.7304 30.9028ZM40.1333 33.6361C39.9804 33.7431 39.8554 33.9061 39.8554 33.9983C39.8554 34.0906 39.5995 34.6772 39.2868 35.3019C38.3693 37.1348 36.4323 38.9969 34.6535 39.7563C32.5705 40.6454 30.5678 40.8877 28.4376 40.5081C27.3674 40.3172 25.8591 39.6634 25.0973 39.0599C24.4564 38.5524 23.5878 37.2203 23.1461 36.0676C22.7663 35.0762 22.4614 34.8314 22.1449 35.2642C21.9146 35.5792 21.9388 35.9448 22.2498 36.8472C23.0695 39.2268 25.1285 41.0396 27.8554 41.7826C29.1036 42.1227 32.4378 42.0833 33.7929 41.7126C36.3935 41.0009 38.8121 39.3387 40.1891 37.3164C40.7748 36.4563 41.3404 35.2667 41.43 34.7064C41.5016 34.2581 41.4686 34.1604 41.1301 33.8219C40.6991 33.3909 40.5285 33.3591 40.1333 33.6361ZM48.629 39.8213C47.6366 40.7458 49.7186 42.4372 52.3894 42.8763C52.6488 42.9189 53.2386 43.1507 53.7003 43.3913C54.6679 43.8957 55.0031 43.8768 55.3008 43.3012C55.5301 42.8576 55.473 42.4997 55.0963 42.0208C54.7225 41.5456 54.082 41.2518 52.4574 40.8107C51.6794 40.5994 50.6963 40.2331 50.2726 39.9966C49.3874 39.5023 49.0141 39.4624 48.629 39.8213ZM13.4179 40.4363C13.0696 40.5813 12.694 41.0118 11.2968 42.8672C10.6285 43.7546 9.89014 44.6612 9.65601 44.8819C9.42189 45.1028 9.23039 45.3726 9.23039 45.4816C9.23039 45.8826 9.52626 46.3097 9.94001 46.5061C10.6884 46.8612 11.0565 46.6298 12.3925 44.9646C13.037 44.1612 13.695 43.3233 13.8548 43.1024C14.0146 42.8816 14.3361 42.6104 14.5694 42.4997C15.355 42.1269 15.3901 41.3424 14.6504 40.6928C14.2193 40.3143 13.8804 40.2438 13.4179 40.4363ZM40.8598 48.1832C40.507 48.8424 40.8806 49.5101 41.8884 50.0207C42.4745 50.3177 43.6094 51.3512 44.5786 52.4706C44.8008 52.7272 45.1231 52.9726 45.2949 53.0156C45.6703 53.1098 46.182 52.8094 46.3775 52.3802C46.551 51.9994 46.2069 51.3869 45.0771 50.0664C43.7781 48.5479 42.8086 47.9491 41.641 47.9442C41.1228 47.9421 40.9626 47.9909 40.8598 48.1832ZM24.3959 49.7461C23.8809 49.9738 23.3234 50.5163 23.0391 51.0664C22.8004 51.5287 22.7153 52.8524 22.8854 53.4581C22.9659 53.7448 22.9289 53.8074 22.5983 53.9444C22.1976 54.1103 21.8554 54.6271 21.8554 55.0659C21.8554 55.2099 21.9999 55.4723 22.1766 55.6491C22.463 55.9354 22.5753 55.9646 23.2135 55.9184C24.5789 55.8197 25.0681 55.0906 24.8451 53.4867C24.6661 52.1998 24.7318 52.0083 25.4825 51.6278C26.0493 51.3407 26.1054 51.2732 26.1054 50.8788C26.1054 50.5796 25.9989 50.3301 25.7616 50.0728C25.3403 49.6163 24.918 49.5152 24.3959 49.7461ZM32.8098 50.7006C32.5596 50.8972 32.4809 51.0702 32.4823 51.4193C32.4848 52.0448 32.9919 53.6311 33.4853 54.5568C34.2363 55.9656 34.807 56.2589 35.4828 55.5833C35.8895 55.1766 35.874 54.9118 35.4008 54.1913C35.0653 53.6804 34.6901 52.6392 34.4841 51.6471C34.2558 50.5467 33.5281 50.1354 32.8098 50.7006Z" />
</svg>
