<svg width="56" height="26" viewBox="0 0 56 26" fill="none" xmlns="http://www.w3.org/2000/svg">
<path fill-rule="evenodd" clip-rule="evenodd" d="M27.0985 0.159196C25.2988 0.550737 23.798 1.83647 22.8449 3.80319C21.6177 6.33568 20.5721 10.823 20.2557 14.9155C20.1873 15.8014 20.0942 16.5651 20.0489 16.6126C20.0036 16.66 18.6929 16.7961 17.1361 16.9149C14.6961 17.1009 12.3893 17.2855 10.7432 17.4264C9.53216 17.5301 8.77234 17.5896 7.95998 17.6446C7.47014 17.6778 6.1676 17.7758 5.06545 17.8623C3.9633 17.9489 2.53552 18.0531 1.8926 18.0939C1.24968 18.1349 0.695375 18.1843 0.660863 18.2038C0.62624 18.2234 0.64806 18.5749 0.709402 18.9848L0.82073 19.7301L2.27512 19.6559C3.07501 19.615 4.63127 19.5084 5.73342 19.4187C6.83557 19.3291 9.74123 19.1054 12.1904 18.9213C14.6397 18.7373 16.8941 18.5639 17.2002 18.5358C18.0854 18.4548 20.1042 18.2636 21.375 18.1405C24.5259 17.8353 31.3075 16.8135 34.3808 16.181C36.4657 15.7519 42.395 14.3143 46.7022 13.1938C49.53 12.4581 54.6128 11.1133 55.0215 10.9928L55.4365 10.8704L55.0903 10.2208C54.7772 9.63344 54.7162 9.57745 54.4526 9.63567C54.2923 9.67107 52.8336 10.0442 51.211 10.4648C49.5883 10.8855 47.7598 11.3542 47.1475 11.5064C46.5352 11.6586 45.1575 12.006 44.086 12.2782C41.6992 12.8846 37.9654 13.7281 37.9142 13.6725C37.8936 13.6501 37.5 12.7049 37.0398 11.5721C34.3256 4.89187 32.4102 1.80563 30.2711 0.665517C29.7493 0.387419 28.1936 -0.0384114 27.8501 0.00277998C27.8096 0.00767842 27.4713 0.0780377 27.0985 0.159196ZM53.1054 12.7132C52.4766 14.194 52.0545 15.0233 51.9295 15.0233C51.7974 15.0233 50.0766 13.7811 49.5674 13.3182C49.4157 13.1802 49.2781 13.1306 49.2217 13.1934C49.1702 13.2507 48.8384 13.974 48.4846 14.8006C48.1308 15.6272 47.8246 16.3228 47.8041 16.3464C47.7424 16.4173 47.2065 16.0396 46.1014 15.1467C45.2569 14.4644 45.0363 14.3335 44.9563 14.4675C44.9019 14.5589 44.5549 15.1847 44.185 15.8582C43.8153 16.5318 43.4195 17.1784 43.3057 17.2952C43.0467 17.5606 42.992 17.5272 41.5276 16.2122C40.9472 15.6909 40.4421 15.2831 40.4051 15.3059C40.3682 15.3288 40.0685 15.9633 39.7391 16.7161C39.4097 17.4689 39.0584 18.2536 38.9583 18.4598L38.7763 18.8348L38.0078 18.1886C37.5851 17.8332 36.9959 17.3262 36.6984 17.0621C36.401 16.798 36.1133 16.5819 36.0592 16.5819C36.0051 16.5819 35.6795 17.1455 35.3356 17.8343C34.7356 19.0361 34.4549 19.4764 34.2887 19.4764C34.2463 19.4764 33.6654 19.003 32.9979 18.4245L31.7842 17.3725L31.5648 17.84C31.0717 18.8903 30.3771 20.3083 30.3354 20.3501C30.2702 20.4152 29.2498 19.6656 28.1874 18.7721C27.4107 18.1189 27.2401 18.0193 27.1227 18.1509C27.0459 18.237 26.616 18.9211 26.1676 19.6712C25.7192 20.4214 25.3266 21.035 25.2953 21.035C25.2639 21.035 24.6965 20.4965 24.0341 19.8382C23.3718 19.1799 22.7688 18.6414 22.6943 18.6414C22.6198 18.6414 22.2174 19.2176 21.8002 19.9217C21.383 20.6259 20.9912 21.2771 20.9294 21.369C20.8384 21.5042 20.5677 21.2744 19.5028 20.1577L18.1886 18.7795L17.328 20.2932C16.8547 21.1257 16.4243 21.8334 16.3715 21.8661C16.3188 21.8987 15.7322 21.3024 15.0681 20.5411C14.4038 19.7799 13.8239 19.1537 13.7791 19.1497C13.7345 19.1457 13.591 19.3521 13.4603 19.6083C13.2748 19.9718 12.3216 21.4758 11.9029 22.0655C11.8673 22.1158 11.3199 21.5538 10.6866 20.8166C10.0533 20.0795 9.52203 19.4764 9.50588 19.4764C9.48985 19.4764 9.02038 20.1151 8.46274 20.8958C7.9051 21.6765 7.38976 22.3153 7.31751 22.3153C7.24536 22.3153 6.74205 21.7642 6.19921 21.0907C5.65638 20.4171 5.17021 19.8661 5.119 19.8661C5.06779 19.8661 4.61802 20.4797 4.11961 21.2298C3.62108 21.9798 3.17276 22.5936 3.12311 22.5936C3.03449 22.5936 2.60254 22.0512 1.68252 20.7845C1.40142 20.3974 1.1349 20.1444 1.00854 20.1444C0.813049 20.1444 0.808373 20.1823 0.936957 20.7288C1.29811 22.2625 2.21712 23.2366 4.02108 23.9973C5.54427 24.6398 6.67002 24.8774 10.5762 25.3811C13.5145 25.76 22.8063 25.9017 25.9395 25.6154C27.3408 25.4873 31.7273 24.9884 32.3828 24.8825C32.5435 24.8566 33.0756 24.7775 33.5654 24.7069C34.0553 24.6364 35.5582 24.361 36.9053 24.0952C42.5294 22.9854 44.3024 22.4198 47.9824 20.5621C51.6243 18.7236 53.4856 17.4247 54.6432 15.9139C54.9112 15.5641 55.5718 14.0234 55.529 13.8479C55.4907 13.6907 53.6102 12.1288 53.4592 12.1288C53.4011 12.1288 53.2419 12.3918 53.1054 12.7132Z"/>
</svg>
