<svg width="60" height="30" viewBox="0 0 60 30" fill="none" xmlns="http://www.w3.org/2000/svg">
<path fill-rule="evenodd" clip-rule="evenodd" d="M22.5 0.151811C21.2286 0.494686 20.2331 1.37444 19.2062 3.06256C18.367 4.44206 18.4582 4.40393 15.9747 4.41168C13.8572 4.41831 13.8099 4.42443 13.1339 4.77481C11.691 5.52281 11.1569 6.34281 10.4964 8.82444C9.85512 11.2332 9.41737 11.7467 7.38625 12.4733C5.71 13.0729 4.82325 13.8418 4.51087 14.9662C4.44175 15.2149 4.385 16.2661 4.38462 17.3019C4.3835 20.1353 4.18737 20.5782 2.44637 21.6788C2.03387 21.9397 1.40575 22.4434 1.0505 22.7984C-1.29013 25.1376 0.531746 29.1197 4.04012 29.3329L4.88387 29.3842L4.88487 28.7138C4.89 25.0726 7.4305 20.3613 11.7589 15.9664C15.7875 11.8761 19.948 9.63144 25.1964 8.71706C29.7467 7.92444 35.4369 9.26069 39.99 12.1914C43.6197 14.5278 47.0834 17.8431 50.3484 22.1059C51.2056 23.2252 53.2529 26.2398 54.5714 28.3243C55.0506 29.0819 55.4776 29.2912 56.515 29.2764C57.7905 29.2584 58.9766 28.6264 59.4556 27.7096C59.7247 27.1944 59.811 26.1602 59.6235 25.6954C59.5344 25.4743 59.1927 24.7167 58.8645 24.0119C57.4076 20.8838 57.2536 20.4462 56.7461 17.9923C56.3761 16.2036 56.0077 15.1841 55.5384 14.6504C55.2621 14.3363 54.1165 13.7314 53.7942 13.7297C53.3375 13.7272 52.2967 13.1272 51.9164 12.6471C51.7019 12.3762 51.318 11.7358 51.0632 11.2239C49.7961 8.67806 48.9819 7.63493 47.8404 7.09506C46.889 6.64518 46.035 6.54318 44.8364 6.73656C43.6452 6.92868 43.38 6.81081 42.3891 5.64881C41.4111 4.50194 39.1889 2.32368 38.3839 1.72281C36.7401 0.495935 35.4102 0.05206 33.3839 0.053935C32.1567 0.05506 31.7322 0.11381 30.4839 0.45556C29.6795 0.67581 28.7746 0.855935 28.473 0.855935C28.1714 0.855935 27.1429 0.65906 26.1875 0.418435C24.3522 -0.0438149 23.4639 -0.108064 22.5 0.151811ZM26.5089 9.55206C21.8974 10.0589 18.9896 11.2448 15.0089 14.2422C11.4269 16.9392 7.65475 21.8543 6.45562 25.3871C6.157 26.2668 5.75512 29.0188 5.9035 29.1672C5.93487 29.1986 6.80112 29.0618 7.8285 28.8633C9.68437 28.5048 11.172 28.3443 14.8839 28.1023C17.2642 27.9472 33.9191 27.6749 41.0714 27.6743C46.6142 27.6738 48.5161 27.7957 51.986 28.3742C52.8327 28.5154 53.5504 28.6062 53.5806 28.5758C53.6684 28.4881 51.257 24.8837 49.8989 23.0727C48.2355 20.8548 47.1599 19.6181 45.1405 17.6019C42.3654 14.8313 40.067 13.1356 37.037 11.6232C34.4407 10.3272 32.1512 9.67556 29.6965 9.53381C29.0776 9.49806 28.4307 9.45206 28.2589 9.43144C28.087 9.41081 27.2995 9.46519 26.5089 9.55206ZM22.4846 12.5308C21.8074 12.7131 21.5631 12.8884 21.3131 13.3719C21.0576 13.8661 21.0901 14.5167 21.3895 14.8973C21.7061 15.2997 22.3265 15.4802 23.3839 15.4774C24.3966 15.4749 25.157 15.1541 25.5059 14.5819C26.4182 13.0854 24.7164 11.9299 22.4846 12.5308ZM33.5714 15.3771C32.2295 15.8822 31.7701 17.0989 32.453 18.3391C33.072 19.4633 34.3352 20.1059 35.9262 20.1059C38.0082 20.1059 39.1295 18.7716 38.3989 17.1633C37.9105 16.0881 36.5254 15.3293 34.9464 15.2722C34.3964 15.2522 33.7776 15.2994 33.5714 15.3771ZM16.9464 20.0641C16.3591 20.3743 16.1449 20.6088 16.0135 21.0843C15.8281 21.7557 16.2032 22.5076 16.9046 22.8706C17.5827 23.2216 18.8687 23.2584 19.4666 22.9438C20.7131 22.2881 20.674 20.7641 19.3937 20.1109C18.7741 19.7948 17.502 19.7704 16.9464 20.0641Z" />
</svg>
