<svg xmlns="http://www.w3.org/2000/svg" viewBox="0 0 250 250"><defs><style>.cls-1{fill:#f3ecde;}.cls-2{fill:#9d7d6f;}.cls-3{fill:#9d7d6e;}.cls-4{fill:#2c2b2f;}.cls-5{fill:#2e2d31;}</style></defs><g id="Calque_2" data-name="Calque 2"><g id="Calque_1-2" data-name="Calque 1"><path class="cls-1" d="M250,117.92v15.87c-.16,1.18-.28,2.38-.48,3.56-.86,5.2-1.59,10.44-2.66,15.6A99.5,99.5,0,0,1,241,170.8a4.23,4.23,0,0,1,0-1.42c1.16-3.5,2.49-7,3.52-10.5.37-1.25.06-2.69.06-4l-.48-.06c-.55,1.64-1.07,3.29-1.67,4.91-1.28,3.5-2.59,7-3.89,10.46v0a9.12,9.12,0,0,1,.3-1.17c3-7.76,5.29-15.71,5.67-24.09.11-2.32-.09-4.66-.15-7l-.27,0c-.55,2.51-1.11,5-1.67,7.54l-.34-.08c.2-2.23.44-4.47.57-6.71s.24-4.64.2-6.95.09-4.46-.74-6.59a2.64,2.64,0,0,0-.42,1.16c-.24,2.34-.59,4.68-.67,7a88.18,88.18,0,0,1-4.55,25,108,108,0,0,1-29.94,45.74,115.62,115.62,0,0,1-41.38,24.72,110.05,110.05,0,0,1-44,5.51,110.58,110.58,0,0,1-27.5-5c-27.18-9.1-48.13-26-62.95-50.5A100,100,0,0,1,17,140.22a120.58,120.58,0,0,1-.78-17.52A96.88,96.88,0,0,1,21,93.33C27,74.76,37.61,59.12,52,46a113.62,113.62,0,0,1,50.47-26.93,116.85,116.85,0,0,1,27.47-2.83,104.86,104.86,0,0,1,23.84,2.46C180.2,24.78,201.9,38.52,219,59.53a103.77,103.77,0,0,1,21.38,44.68c1.29,6.11,1.6,12.32,2.07,18.52.12,1.53.38,3,.58,4.57l.61,0a15.64,15.64,0,0,0,.54-3.46c-.32-4.62-.53-9.27-1.24-13.83a114.57,114.57,0,0,0-17.58-45.75c-1.36-2.06-2.8-4.08-4.2-6.13l.16-.16,2.88,1.94.27-.3a17.17,17.17,0,0,0-1.08-1.87,54.25,54.25,0,0,0-4.19-5.21c-4.45-4.49-9-8.86-13.54-13.3a25.28,25.28,0,0,1-1.69-2l.29-.33,3.85,1.46.19-.27-1-1.71a2.39,2.39,0,0,1,.65.26c2.51,2.25,5.07,4.43,7.48,6.78a77,77,0,0,1,5.69,6.15c3,3.59,6,7.18,8.63,11a110.68,110.68,0,0,1,13.35,25.61,108.34,108.34,0,0,1,6.48,28.19C249.64,115.55,249.84,116.73,250,117.92Zm-115.26,35-.05,0c.12-.6.34-1.26-.55-1.45a10.36,10.36,0,0,0-1.91-.28c-7.79-.1-15.59-.17-23.38-.28a1.72,1.72,0,0,0-1.87,1.66,7.88,7.88,0,0,0,0,1.46c0,1.64.06,1.67,1.69,1.77-.06,1.14.45,1.47,1.6,1.47,3.29,0,6.57.17,9.85.27-1.16,4.31-2.26,8.62-3.48,12.91-1.27,4.45-2.74,8.84-3.94,13.3-1.38,5.17-2.19,10.5-4.73,15.31a1.79,1.79,0,0,0-.16.46,1.75,1.75,0,0,0,2,2.31,4.4,4.4,0,0,1,.73-.07c6.61.05,13.23.12,19.85.14a21.44,21.44,0,0,0,3.39-.28,1.49,1.49,0,0,0,1.47-1.38c2.15-.55,2.15-.55,2.15-2.75,0-.25,0-.49,0-.74,0-1.5-.14-1.69-1.66-1.68-3,0-5.93.18-8.9.18s-3.35.76-2.36-3c1.85-7,3.85-13.91,6.08-20.77,1.84-5.66,4.11-11.18,6.2-16.76.46-1.21.39-1.34-.92-1.51-.2,0-.39-.09-.59-.13ZM99,47.32c-.15-.14-.31-.39-.47-.4-2.79,0-5.58,0-8.48,0,0,4,0,7.83,0,11.68,0,2.27.61,4.82-.22,6.75s-3.14,3.3-4.74,5-3.38,3.68-5,5.4h3.13l-.11.71h6.68v26.31h2.94c.37,0,.73,0,1.1,0h78c.2,0,.4,0,.61,0,.77,0,1-.26,1-1.08q-.06-17.52,0-35c0-1.05-.33-2.55.21-3s2.05-.28,3.13-.31c1.6,0,3.2,0,5,0l-.85-1,.77-.13L136,20.12c-.37.34-.67.61-1,.89l-32.33,31.3a12.25,12.25,0,0,1-1.12.9V48.55a9.45,9.45,0,0,1-1.52,0A4.8,4.8,0,0,1,99,48.07v-.75ZM79.41,154.24h0a11.06,11.06,0,0,0-1.54-1.13c-6.48-3.26-13.31-3.22-20.23-2a1.91,1.91,0,0,0-1.3,1.21,24.85,24.85,0,0,0-.26,4.8c.11,2.1.6,4.19.62,6.29.08,8.13.05,16.26,0,24.39,0,1.9-.17,3.81-.26,5.72-.11,2.19-.25,4.38-.29,6.57,0,.38.45,1.07.74,1.09,2.18.22,4.37.33,6.56.41,1,0,1.66-.38,1.54-1.52,1.88-.23,1.89-.23,2.12-2.11.1-.89.22-1.77.28-2.67.17-2.59.35-5.19.47-7.78,0-.91.32-1.41,1.33-1.47s1.84-.32,2.76-.45c6.6-1,11.27-4.28,13.4-10.81a19.76,19.76,0,0,0,.16-12.33c-1-3.34-2.47-6.37-5.85-8Zm21.45-1.92-.08-1.59a43,43,0,0,0-10.44-.1c-1,.14-1.42.63-1.4,1.7.08,4.68,0,9.36.14,14,.24,10.77.54,21.54.84,32.31a25.68,25.68,0,0,0,.38,2.88c1.16-.05,2.08-.12,3-.13,2.16,0,4.31,0,6.47,0a1.72,1.72,0,0,0,2-1.5,1.86,1.86,0,0,0,1.84-2,15.8,15.8,0,0,0,0-1.82c-.11-2.59-.25-5.18-.34-7.77,0-1.3.06-2.61,0-3.9a219.81,219.81,0,0,1-.52-26.05c.07-1.92,0-3.85,0-5.72Zm81.35,40.13c1.94,0,3.9.08,5.83,0,1.3-.09,1.76.48,1.89,1.61.24,2,.52,4,.71,6,.1,1,.5,1.66,1.56,1.58,3.23-.25,6.45-.56,9.67-.84.82-.07,1.1-.53,1-1.29l2.45-.52c-.8-2.32-1.61-4.4-2.25-6.53-2.16-7.27-4.05-14.63-6.46-21.82-1.82-5.45-4.33-10.68-5.14-16.44-.19-1.3-.85-1.74-2.06-1.57-.56-1.81-.56-1.81-2.52-1.73a16.1,16.1,0,0,1-1.7.06c-1.08-.07-1.43.46-1.59,1.47-.66,4.17-1.3,8.34-2.12,12.48-2.31,11.65-4.71,23.29-7.05,34.94-.08.4,0,1.16.17,1.22a7.91,7.91,0,0,0,2.62.47c.76,0,1.7-.2,1.67-1.36a2.73,2.73,0,0,0,2.37-2.7C181.51,195.78,181.89,194.12,182.21,192.45ZM156,157.17h.26l.47,0,1.3.17c-1.5,3-3,5.95-4.38,8.95-4.39,9.78-8.51,19.69-13.52,29.2a10.82,10.82,0,0,0-1.1,4.31c-.14,2.08.33,2.39,2.41,2.37,6.1-.06,12.2-.15,18.3-.18,3,0,5.93,0,8.9.1,1.64,0,1.64.1,1.77-1.61,3.05-.13,3.05-.13,3.16-3.14.06-1.63,0-1.71-1.66-1.74-5-.09-10-.14-15-.22-.46,0-.93-.07-1.59-.12.22-.74.35-1.33.57-1.87,1.17-2.8,2.43-5.57,3.54-8.39,3.7-9.51,7.86-18.78,13.55-27.3a9.82,9.82,0,0,0,1.19-2.38,3.07,3.07,0,0,0-.82-3.47,3,3,0,0,0-.71-.12c-.91.11-1.52-.07-1.74-1.13-.06-.28-.71-.64-1.09-.64-1.71,0-3.41.21-5.11.24q-10.3.15-20.61.23c-3.19,0-3.31.09-3.2,3.31,0,.17,0,.33,0,.49.12,1.05.38,2,1.83,1.59.23-.06.52.14.78.22,0,.8.37,1.34,1.23,1.33Zm-1.69-13.75v-36.9a18.67,18.67,0,0,1-2.49,0c-1.08-.14-1.56.27-1.94,1.27-1.41,3.71-2.92,7.4-4.4,11.09-.13.31-.29.61-.52,1.09-1.69-4.31-3.29-8.43-4.93-12.53-.14-.36-.49-.87-.78-.9-1.15-.1-2.32,0-3.59,0v36.88H140V116.68c.2.46.31.7.4.95,1.28,3.42,2.53,6.85,3.83,10.27a3.64,3.64,0,0,0,.79.89,4,4,0,0,0,.69-.87c1.29-3.37,2.56-6.76,3.83-10.14.11-.27.26-.52.54-1.11-.13,9.15-.25,17.91-.38,26.75Zm-48.09-36.95h-4.59v16.07H94.7v-16.1H90.07v36.81h4.6V127.09h7v16.13h4.6Zm24.59,18.4c-.15-2-.2-4.07-.48-6.07-.51-3.57-1.42-7-3.69-9.93-3.11-4-8.37-4-11.28.17a18.29,18.29,0,0,0-2.53,5.22,39.49,39.49,0,0,0-.85,18.21,17.23,17.23,0,0,0,3.78,8.85c2.94,3.36,7.38,3.43,10.3.06a17.07,17.07,0,0,0,2.6-4.22C130.41,133.26,130.67,129.08,130.81,124.87Zm29.84-18.22v36.82h13.17v-4.4h-8.48V126.42h7.44v-4.36h-7.41V111h8.16v-4.33Z"/><path class="cls-2" d="M221.14,58.15c1.4,2.05,2.84,4.07,4.2,6.13A114.57,114.57,0,0,1,242.92,110c.71,4.56.92,9.21,1.24,13.83a15.64,15.64,0,0,1-.54,3.46l-.61,0c-.2-1.52-.46-3-.58-4.57-.47-6.2-.78-12.41-2.07-18.52A103.77,103.77,0,0,0,219,59.53c-17.08-21-38.78-34.75-65.23-40.83a104.86,104.86,0,0,0-23.84-2.46,116.85,116.85,0,0,0-27.47,2.83A113.62,113.62,0,0,0,52,46C37.61,59.12,27,74.76,21,93.33a96.88,96.88,0,0,0-4.72,29.37A120.58,120.58,0,0,0,17,140.22,100,100,0,0,0,30.71,178.8c14.82,24.47,35.77,41.4,63,50.5a110.58,110.58,0,0,0,27.5,5,110.05,110.05,0,0,0,44-5.51,115.62,115.62,0,0,0,41.38-24.72,108,108,0,0,0,29.94-45.74,88.18,88.18,0,0,0,4.55-25c.08-2.35.43-4.69.67-7a2.64,2.64,0,0,1,.42-1.16c.83,2.13.7,4.38.74,6.59s-.07,4.63-.2,6.95-.37,4.48-.57,6.71l.34.08c.56-2.51,1.12-5,1.67-7.54l.27,0c.06,2.33.26,4.67.15,7-.38,8.38-2.65,16.33-5.67,24.09a9.12,9.12,0,0,0-.3,1.17l-.29.44.17.07.11-.53c1.3-3.48,2.61-7,3.89-10.46.6-1.62,1.12-3.27,1.67-4.91l.48.06c0,1.35.31,2.79-.06,4-1,3.54-2.36,7-3.52,10.5a4.23,4.23,0,0,0,0,1.42l1.11.4c1.58-4.5,3.11-8.88,4.59-13.09l1.6.75c-.13.53-.24,1-.37,1.47a102.29,102.29,0,0,1-12,26.41c-3,4.87-6.53,9.41-9.83,14.09-.34.49-.94.95.26,1.41,9.66-11.13,16.3-24,21.53-37.73.1.49-.11,1.17.05,1.27.9.59.33,1.21.13,1.78a95.32,95.32,0,0,1-10.67,21.58c-3.24,4.86-6.87,9.46-10.33,14.18h0l-.48.5-6.14,6.81-.24.24-.24.25-.24.25-.24.24-.24.25-.24.25-1,1-.24.24-.48.5-1,.87.23.22.87-1,.52-.47.24-.24,1-1,.21-.21.28-.28.21-.21.24-.24.25-.24.24-.25q1.56-1.62,3.13-3.23c.84-.86,1.71-1.69,2.56-2.54a11.46,11.46,0,0,1-.87,1.67,65.94,65.94,0,0,1-11.36,11.53C199.92,229.73,184.58,239,167,244.14a133.28,133.28,0,0,1-26.79,5.4c-1.4.12-2.8.31-4.2.46H121.34a3.22,3.22,0,0,0-.77-.23,139.94,139.94,0,0,1-22-3.2,126.14,126.14,0,0,1-88.25-73.26,117.57,117.57,0,0,1-9.84-40c-.1-1.39-.3-2.78-.45-4.17V116.21a5.68,5.68,0,0,0,.24-.77c.81-5.58,1.24-11.24,2.49-16.72C9.31,69.79,24.29,46,47.6,27.7A127.68,127.68,0,0,1,117.77.46c1.28-.11,2.54-.31,3.81-.46h14.16a5.32,5.32,0,0,0,.78.22c5.08.58,10.19,1,15.24,1.76a121.82,121.82,0,0,1,40.53,14c.69.38,1.36.79,2.05,1.19l-.07.22L191.22,17l-.12.35c.67.49,1.35,1,2,1.48,5.35,4,10.76,8,16,12.18a34.47,34.47,0,0,1,4.71,5.08,2.45,2.45,0,0,1,.41,3.11,123.86,123.86,0,0,0-48.07-26.52.4.4,0,0,0,.22.3c.52.23,1,.49,1.57.67,9.34,3.14,17.9,7.88,26.28,13,4.65,2.83,9.31,5.67,13,9.78l1,1.71-.19.27-3.85-1.46-.29.33a25.28,25.28,0,0,0,1.69,2c4.51,4.44,9.09,8.81,13.54,13.3a54.25,54.25,0,0,1,4.19,5.21,17.17,17.17,0,0,1,1.08,1.87l-.27.3L221.3,58l-.3,0Z"/><path class="cls-3" d="M89.81,76.42H83.13c0-.27.08-.49.11-.71a7.47,7.47,0,0,0,1-.67c2.63-2.53,5.23-5.1,7.88-7.61A2.62,2.62,0,0,0,93,65.32C93,60.21,93,55.1,93,50c0-.43,0-.86.06-1.42,1.68,0,3.25,0,4.82,0A3.34,3.34,0,0,0,99,48.07a4.8,4.8,0,0,0,1.08.46,9.45,9.45,0,0,0,1.52,0V57l.32.05,35.64-34.5c.29.22.45.33.6.47Q155.46,39,172.78,54.91c2.69,2.48,5.42,4.91,8.14,7.36l.85,1c-1.8,0-3.4,0-5,0-1.08,0-2.5-.25-3.13.31s-.21,2-.21,3q0,17.5,0,35c0,.82-.24,1.13-1,1.08-.21,0-.41,0-.61,0h-78c-.37,0-.73,0-1.1,0V76.42Z"/><path class="cls-4" d="M79.67,154.42c3.38,1.62,4.82,4.65,5.85,8a19.76,19.76,0,0,1-.16,12.33c-2.13,6.53-6.8,9.84-13.4,10.81-.92.13-1.83.4-2.76.45s-1.28.56-1.33,1.47c-.12,2.59-.3,5.19-.47,7.78-.06.9-.18,1.78-.28,2.67-.23,1.88-.24,1.88-2.12,2.11-1.66-.11-3.31-.28-5-.32-2.17-.06-2.24,0-2.13-2.18.17-3.33.6-6.64.64-10,.1-7.8,0-15.61,0-23.42a19.94,19.94,0,0,0-.17-2.31c-.24-2-.63-4-.72-6s.76-2.92,2.5-3.12c6.18-.7,12.33-.84,18.3,1.39a5.65,5.65,0,0,0,.93.16h0ZM68.58,179.24c.34.11.77.41,1,.3,1.23-.52,2.41-1.14,3.62-1.73a3.67,3.67,0,0,0,2-2.72,41.23,41.23,0,0,0,.77-4.92,20.05,20.05,0,0,0-1.66-10,4.89,4.89,0,0,0-2.87-3,3.17,3.17,0,0,0-3-.48c-.1,6.11-.22,12.2-.27,18.29C68.24,176.44,68.46,177.84,68.58,179.24Z"/><path class="cls-4" d="M156.73,157.14l-.47,0H156l-11.25.17c-.86,0-1.21-.53-1.23-1.33,0-.28-.08-.56-.11-.83-.29-2.31.25-2.86,2.53-2.9,9.14-.13,18.27-.3,27.41-.46a3.07,3.07,0,0,1,.82,3.47,9.82,9.82,0,0,1-1.19,2.38c-5.69,8.52-9.85,17.79-13.55,27.3-1.11,2.82-2.37,5.59-3.54,8.39-.22.54-.35,1.13-.57,1.87.66.05,1.13.11,1.59.12,5,.08,10,.13,15,.22,1.67,0,1.72.11,1.66,1.74-.11,3-.11,3-3.16,3.14-3.78,0-7.56,0-11.34,0-5.2,0-10.41,0-15.61,0-1.62,0-1.8-.25-1.91-1.82-.15-2.15.81-3.93,1.77-5.73,2.76-5.21,5.51-10.42,8.18-15.66,2-3.91,3.82-7.9,5.76-11.84,1.17-2.36,2.44-4.67,3.64-7,.27-.54.62-1.28-.42-1.34C159.23,157,158,157.11,156.73,157.14Z"/><path class="cls-4" d="M135.24,153.07c.2,0,.39.11.59.13,1.31.17,1.38.3.92,1.51-2.09,5.58-4.36,11.1-6.2,16.76-2.23,6.86-4.23,13.8-6.08,20.77-1,3.73-.71,3,2.36,3s5.93-.14,8.9-.18c1.52,0,1.66.18,1.66,1.68,0,.25,0,.49,0,.74,0,2.2,0,2.2-2.15,2.75H112.82a4.2,4.2,0,0,0-1.33.05c-1.12.41-1.66-.19-1.87-1.09a3.19,3.19,0,0,1,.16-1.83c.61-1.5,1.55-2.88,2-4.42,2.38-7.62,4.65-15.29,7-22.93.71-2.33,1.44-4.64,2.14-7,.5-1.7,1-3.41,1.51-5.32l-2.32-.18c-3.28-.1-6.56-.26-9.85-.27-1.15,0-1.66-.33-1.6-1.47v-.61c0-2,.54-2.54,2.52-2.51s4.22.12,6.34.14c5.73.05,11.46.07,17.19.1l.05,0Z"/><path class="cls-4" d="M189.43,152.61c1.21-.17,1.87.27,2.06,1.57.81,5.76,3.32,11,5.14,16.44,2.41,7.19,4.3,14.55,6.46,21.82.64,2.13,1.45,4.21,2.25,6.53l-2.45.52-8.48.5c-1.06.07-1.49-.41-1.6-1.49-.21-2-.57-4-.88-6a1.08,1.08,0,0,0-1.24-1c-2.55,0-5.11,0-7.66.08-.28,0-.55.6-.82.92-.32,1.67-.7,3.33-.93,5a2.73,2.73,0,0,1-2.37,2.7c-.41,0-.82,0-1.22-.09-1.34-.24-1.62-.71-1.31-2,1.38-5.93,2.84-11.84,4.09-17.79,1.81-8.58,3.48-17.19,5.12-25.8.25-1.29.7-1.83,2-1.68A8.73,8.73,0,0,0,189.43,152.61Zm-.7,35.62a4.26,4.26,0,0,0,1.44-.12c.31-.14.71-.71.63-1-1.07-4-2.22-8-3.37-11.93a4.45,4.45,0,0,0-.5-.9h-.35l-.76,3c-.69,2.49-1.42,5-2,7.49a34.88,34.88,0,0,0-.53,3.48Z"/><path class="cls-4" d="M100.86,152.32l1.85.34c0,1.87.06,3.8,0,5.72a219.81,219.81,0,0,0,.52,26.05c.11,1.29,0,2.6,0,3.9.09,2.59.23,5.18.34,7.77a15.8,15.8,0,0,1,0,1.82,1.86,1.86,0,0,1-1.84,2c-3,0-6.1,0-9.14,0a1.17,1.17,0,0,1-.86-.57,3.92,3.92,0,0,1-.24-1.42c-.24-6.17-.53-12.34-.66-18.51-.18-8.29-.24-16.58-.32-24.87,0-1.9.12-2,2-2.22.4,0,.81-.05,1.22-.05Z"/><path class="cls-5" d="M154.31,143.42h-4.6c.13-8.84.25-17.6.38-26.75-.28.59-.43.84-.54,1.11-1.27,3.38-2.54,6.77-3.83,10.14a4,4,0,0,1-.69.87,3.64,3.64,0,0,1-.79-.89c-1.3-3.42-2.55-6.85-3.83-10.27-.09-.25-.2-.49-.4-.95v26.68h-4.35V106.48c1.27,0,2.44-.06,3.59,0,.29,0,.64.54.78.9,1.64,4.1,3.24,8.22,4.93,12.53.23-.48.39-.78.52-1.09,1.48-3.69,3-7.38,4.4-11.09.38-1,.86-1.41,1.94-1.27a18.67,18.67,0,0,0,2.49,0Z"/><path class="cls-5" d="M106.22,106.47v36.75h-4.6V127.09h-7v16.16h-4.6V106.44H94.7v16.1h6.93V106.47Z"/><path class="cls-5" d="M130.81,124.87c-.14,4.21-.4,8.39-2.15,12.29a17.07,17.07,0,0,1-2.6,4.22c-2.92,3.37-7.36,3.3-10.3-.06a17.23,17.23,0,0,1-3.78-8.85,39.49,39.49,0,0,1,.85-18.21,18.29,18.29,0,0,1,2.53-5.22c2.91-4.12,8.17-4.14,11.28-.17,2.27,2.9,3.18,6.36,3.69,9.93C130.61,120.8,130.66,122.84,130.81,124.87ZM116,124.16c.28,3.36.29,5.78.73,8.13a19.59,19.59,0,0,0,1.93,5.7c1.08,2,3.29,1.93,4.59.1a8.42,8.42,0,0,0,1.22-2.5,43,43,0,0,0,.5-19.69,12.29,12.29,0,0,0-1.9-4.41,2.46,2.46,0,0,0-4.22.07,7.6,7.6,0,0,0-1.4,2.94C116.85,118,116.41,121.54,116,124.16Z"/><path class="cls-4" d="M160.65,106.65h12.88V111h-8.16v11.08h7.41v4.36h-7.44v12.65h8.48v4.4H160.65Z"/><path class="cls-5" d="M180.92,62.27c-2.72-2.45-5.45-4.88-8.14-7.36Q155.44,39,138.13,23c-.15-.14-.31-.25-.6-.47l-35.64,34.5-.32-.05v-3.8a12.25,12.25,0,0,0,1.12-.9L135,21c.29-.28.59-.55,1-.89l45.71,42Z"/><path class="cls-3" d="M156.73,157.14c1.25,0,2.5-.14,3.75-.07,1,.06.69.8.42,1.34-1.2,2.35-2.47,4.66-3.64,7-1.94,3.94-3.77,7.93-5.76,11.84-2.67,5.24-5.42,10.45-8.18,15.66-1,1.8-1.92,3.58-1.77,5.73.11,1.57.29,1.82,1.91,1.82,5.2,0,10.41,0,15.61,0,3.78,0,7.56,0,11.34,0-.13,1.71-.13,1.65-1.77,1.61-3-.08-5.94-.12-8.9-.1-6.1,0-12.2.12-18.3.18-2.08,0-2.55-.29-2.41-2.37a10.82,10.82,0,0,1,1.1-4.31c5-9.51,9.13-19.42,13.52-29.2,1.35-3,2.88-5.91,4.38-8.95Z"/><path class="cls-2" d="M79.4,154.23a5.65,5.65,0,0,1-.93-.16c-6-2.23-12.12-2.09-18.3-1.39-1.74.2-2.59,1.23-2.5,3.12s.48,4,.72,6a19.94,19.94,0,0,1,.17,2.31c0,7.81.08,15.62,0,23.42,0,3.33-.47,6.64-.64,10-.11,2.16,0,2.12,2.13,2.18,1.66,0,3.31.21,5,.32.12,1.14-.57,1.56-1.54,1.52-2.19-.08-4.38-.19-6.56-.41-.29,0-.74-.71-.74-1.09,0-2.19.18-4.38.29-6.57.09-1.91.26-3.82.26-5.72,0-8.13.06-16.26,0-24.39,0-2.1-.51-4.19-.62-6.29a24.85,24.85,0,0,1,.26-4.8,1.91,1.91,0,0,1,1.3-1.21c6.92-1.19,13.75-1.23,20.23,2A11.06,11.06,0,0,1,79.4,154.23Z"/><path class="cls-3" d="M120.09,157.5l2.32.18c-.54,1.91-1,3.62-1.51,5.32-.7,2.33-1.43,4.64-2.14,7-2.31,7.64-4.58,15.31-7,22.93-.47,1.54-1.41,2.92-2,4.42a3.19,3.19,0,0,0-.16,1.83c.21.9.75,1.5,1.87,1.09a4.2,4.2,0,0,1,1.33-.05h22.43a1.49,1.49,0,0,1-1.47,1.38,21.44,21.44,0,0,1-3.39.28c-6.62,0-13.24-.09-19.85-.14a4.4,4.4,0,0,0-.73.07,1.75,1.75,0,0,1-2-2.31,1.79,1.79,0,0,1,.16-.46c2.54-4.81,3.35-10.14,4.73-15.31,1.2-4.46,2.67-8.85,3.94-13.3C117.83,166.12,118.93,161.81,120.09,157.5Z"/><path class="cls-2" d="M100.86,152.32H93.79c-.41,0-.82,0-1.22.05-1.89.2-2,.32-2,2.22.08,8.29.14,16.58.32,24.87.13,6.17.42,12.34.66,18.51a3.92,3.92,0,0,0,.24,1.42,1.17,1.17,0,0,0,.86.57c3,0,6.09,0,9.14,0a1.72,1.72,0,0,1-2,1.5c-2.16,0-4.31,0-6.47,0-.92,0-1.84.08-3,.13a25.68,25.68,0,0,1-.38-2.88c-.3-10.77-.6-21.54-.84-32.31-.11-4.67-.06-9.35-.14-14,0-1.07.37-1.56,1.4-1.7a43,43,0,0,1,10.44.1Z"/><path class="cls-2" d="M189.43,152.61a8.73,8.73,0,0,1-1.82.16c-1.32-.15-1.77.39-2,1.68-1.64,8.61-3.31,17.22-5.12,25.8-1.25,5.95-2.71,11.86-4.09,17.79-.31,1.32,0,1.79,1.31,2,.4.06.81.06,1.22.09,0,1.16-.91,1.33-1.67,1.36a7.91,7.91,0,0,1-2.62-.47c-.18-.06-.25-.82-.17-1.22,2.34-11.65,4.74-23.29,7.05-34.94.82-4.14,1.46-8.31,2.12-12.48.16-1,.51-1.54,1.59-1.47a16.1,16.1,0,0,0,1.7-.06C188.87,150.8,188.87,150.8,189.43,152.61Z"/><path class="cls-5" d="M99,48.07a3.34,3.34,0,0,1-1.09.47c-1.57.05-3.14,0-4.82,0,0,.56-.06,1-.06,1.42,0,5.12,0,10.23,0,15.34a2.62,2.62,0,0,1-.91,2.11c-2.65,2.51-5.25,5.08-7.88,7.61a7.47,7.47,0,0,1-1,.67H80.11c1.57-1.72,3.22-3.6,5-5.4s3.9-3,4.74-5,.22-4.48.22-6.75c0-3.85,0-7.71,0-11.68,2.9,0,5.69,0,8.48,0,.16,0,.32.26.47.4v.75Z"/><path class="cls-4" d="M89.81,76.42h2.94v26.31H89.81Z"/><path class="cls-3" d="M173.35,151.82c-9.14.16-18.27.33-27.41.46-2.28,0-2.82.59-2.53,2.9,0,.27.07.55.11.83-.26-.08-.55-.28-.78-.22-1.45.36-1.71-.54-1.83-1.59,0-.16,0-.32,0-.49-.11-3.22,0-3.29,3.2-3.31q10.31-.08,20.61-.23c1.7,0,3.4-.22,5.11-.24.38,0,1,.36,1.09.64.22,1.06.83,1.24,1.74,1.13A3,3,0,0,1,173.35,151.82Z"/><path class="cls-2" d="M134.69,152.88c-5.73,0-11.46,0-17.19-.1-2.12,0-4.23-.12-6.34-.14s-2.51.52-2.52,2.51v.61c-1.63-.1-1.66-.13-1.69-1.77a7.88,7.88,0,0,1,0-1.46,1.72,1.72,0,0,1,1.87-1.66c7.79.11,15.59.18,23.38.28a10.36,10.36,0,0,1,1.91.28C135,151.62,134.81,152.28,134.69,152.88Z"/><path class="cls-3" d="M182.21,192.45c.27-.32.54-.92.82-.92,2.55-.08,5.11-.05,7.66-.08a1.08,1.08,0,0,1,1.24,1c.31,2,.67,4,.88,6,.11,1.08.54,1.56,1.6,1.49l8.48-.5c.08.76-.2,1.22-1,1.29-3.22.28-6.44.59-9.67.84-1.06.08-1.46-.56-1.56-1.58-.19-2-.47-4-.71-6-.13-1.13-.59-1.7-1.89-1.61C186.11,192.53,184.15,192.44,182.21,192.45Z"/><path class="cls-2" d="M135.24,153.07l-.5-.17Z"/><path class="cls-3" d="M156,157.17h0Z"/><path class="cls-2" d="M79.67,154.42l-.26-.18Z"/><path class="cls-3" d="M99,47.65v0Z"/><path class="cls-1" d="M227,203.32c.6.6.42,1.05-.72,1.77-.85.85-1.72,1.68-2.56,2.54q-1.58,1.6-3.13,3.23c-.06-.08-.13-.15-.19-.22l6.14-6.81.48-.5Z"/><path class="cls-1" d="M217.38,214l-.87,1-.23-.22,1-.87Z"/><path class="cls-1" d="M218,213.11l1-1,.2.17-1,1A.75.75,0,0,0,218,213.11Z"/><path class="cls-1" d="M238.52,170.15l-.11.53-.17-.07.29-.44Z"/><path class="cls-1" d="M217.27,213.85l.48-.5.15.16-.52.47Z"/><path class="cls-1" d="M221.14,58.15,221,58l.3,0Z"/><path class="cls-1" d="M220.16,210.88l.24-.24c.06.07.13.14.19.22l-.24.25Z"/><path class="cls-1" d="M220.35,211.11l-.25.24-.18-.22.24-.25Z"/><path class="cls-1" d="M220.1,211.35l-.24.24-.18-.21.24-.25Z"/><path class="cls-1" d="M219.65,211.8l-.28.28-.17-.21.24-.25Z"/><path class="cls-1" d="M219,212.12l.24-.25.17.21-.21.21Z"/><path class="cls-1" d="M217.75,213.35l.24-.24a.75.75,0,0,1,.15.16l-.24.24Z"/><path class="cls-1" d="M219.44,211.62l.24-.24.18.21-.21.21Z"/><path class="cls-1" d="M68.58,179.24c-.12-1.4-.34-2.8-.32-4.2,0-6.09.17-12.18.27-18.29a3.17,3.17,0,0,1,3,.48A34.36,34.36,0,0,1,73,160.79a30.2,30.2,0,0,1,.83,10.72C73.63,175.21,72.28,178,68.58,179.24Z"/><path class="cls-3" d="M68.58,179.24c3.7-1.25,5-4,5.26-7.73A30.2,30.2,0,0,0,73,160.79a34.36,34.36,0,0,0-1.49-3.56,4.89,4.89,0,0,1,2.87,3,20.05,20.05,0,0,1,1.66,10,41.23,41.23,0,0,1-.77,4.92,3.67,3.67,0,0,1-2,2.72c-1.21.59-2.39,1.21-3.62,1.73C69.35,179.65,68.92,179.35,68.58,179.24Z"/><path class="cls-1" d="M188.73,188.23h-5.49a34.88,34.88,0,0,1,.53-3.48c.63-2.51,1.36-5,2-7.49.12.09.33.16.36.27C187,181.09,187.88,184.66,188.73,188.23Z"/><path class="cls-3" d="M188.73,188.23c-.85-3.57-1.69-7.14-2.55-10.7,0-.11-.24-.18-.36-.27.26-1,.51-2,.76-3h.35a4.45,4.45,0,0,1,.5.9c1.15,4,2.3,7.94,3.37,11.93.08.26-.32.83-.63,1A4.26,4.26,0,0,1,188.73,188.23Z"/><path class="cls-1" d="M116,124.16c.38-2.62.82-6.16,1.45-9.66a7.6,7.6,0,0,1,1.4-2.94,2.46,2.46,0,0,1,4.22-.07,12.29,12.29,0,0,1,1.9,4.41,43,43,0,0,1-.5,19.69,8.42,8.42,0,0,1-1.22,2.5c-1.3,1.83-3.51,1.88-4.59-.1a19.59,19.59,0,0,1-1.93-5.7C116.32,129.94,116.31,127.52,116,124.16Z"/></g></g></svg>